<svg width="110" height="31" viewBox="0 0 110 31" fill="none" xmlns="http://www.w3.org/2000/svg">
<path d="M17.082 19.8086V14.2031C17.082 13.4349 16.9323 12.7122 16.6328 12.0352C16.3464 11.3451 15.9492 10.7461 15.4414 10.2383C14.9336 9.73047 14.3346 9.33333 13.6445 9.04688C12.9674 8.7474 12.2448 8.59766 11.4766 8.59766C10.7083 8.59766 9.97917 8.7474 9.28906 9.04688C8.61198 9.33333 8.01953 9.73047 7.51172 10.2383C7.00391 10.7461 6.60026 11.3451 6.30078 12.0352C6.01432 12.7122 5.87109 13.4349 5.87109 14.2031V19.8086H17.082ZM22.6875 31H17.082V25.3945H5.87109V31H0.285156V14.2031C0.285156 12.6536 0.578125 11.2018 1.16406 9.84766C1.75 8.48047 2.54427 7.28906 3.54688 6.27344C4.5625 5.25781 5.7474 4.45703 7.10156 3.87109C8.46875 3.28516 9.92708 2.99219 11.4766 2.99219C13.026 2.99219 14.4779 3.28516 15.832 3.87109C17.1992 4.45703 18.3906 5.25781 19.4062 6.27344C20.4219 7.28906 21.2227 8.48047 21.8086 9.84766C22.3945 11.2018 22.6875 12.6536 22.6875 14.2031V31ZM34.3164 31H28.9844V10.082H30.2734L32.0312 12.1133C32.8906 11.332 33.8607 10.7331 34.9414 10.3164C36.0352 9.88672 37.1745 9.67188 38.3594 9.67188C39.6354 9.67188 40.8398 9.91927 41.9727 10.4141C43.1055 10.8958 44.0951 11.5664 44.9414 12.4258C45.7878 13.2721 46.4518 14.2682 46.9336 15.4141C47.4284 16.5469 47.6758 17.7578 47.6758 19.0469V31H42.3438V19.0469C42.3438 18.5 42.2396 17.9857 42.0312 17.5039C41.8229 17.0091 41.5365 16.5794 41.1719 16.2148C40.8073 15.8503 40.3841 15.5638 39.9023 15.3555C39.4206 15.1471 38.9062 15.043 38.3594 15.043C37.7995 15.043 37.2721 15.1471 36.7773 15.3555C36.2826 15.5638 35.8529 15.8503 35.4883 16.2148C35.1237 16.5794 34.8372 17.0091 34.6289 17.5039C34.4206 17.9857 34.3164 18.5 34.3164 19.0469V31ZM63.6992 31C62.4102 31 61.1992 30.7591 60.0664 30.2773C58.9336 29.7826 57.9375 29.112 57.0781 28.2656C56.2318 27.4062 55.5612 26.4102 55.0664 25.2773C54.5846 24.1445 54.3438 22.9336 54.3438 21.6445V15.4336H51.7461V10.1211H54.3438V1.76172H59.6562V10.1211H67.7422V15.4336H59.6562V21.6445C59.6562 22.2044 59.7604 22.7318 59.9688 23.2266C60.1771 23.7083 60.4635 24.1315 60.8281 24.4961C61.1927 24.8607 61.6224 25.1536 62.1172 25.375C62.612 25.5833 63.1393 25.6875 63.6992 25.6875H67.7422V31H63.6992ZM78.082 31H72.75V10.082H74.0391L75.7969 12.5625C76.6562 11.7812 77.6328 11.1823 78.7266 10.7656C79.8203 10.3359 80.9531 10.1211 82.125 10.1211H86.832V15.4336H82.125C81.5651 15.4336 81.0378 15.5378 80.543 15.7461C80.0482 15.9544 79.6185 16.2409 79.2539 16.6055C78.8893 16.9701 78.6029 17.3997 78.3945 17.8945C78.1862 18.3893 78.082 18.9167 78.082 19.4766V31ZM97.6016 4.39844C97.6016 4.89323 97.5039 5.35547 97.3086 5.78516C97.1263 6.21484 96.8724 6.59245 96.5469 6.91797C96.2214 7.23047 95.8372 7.48438 95.3945 7.67969C94.9648 7.86198 94.5026 7.95312 94.0078 7.95312C93.513 7.95312 93.0443 7.86198 92.6016 7.67969C92.1719 7.48438 91.7943 7.23047 91.4688 6.91797C91.1562 6.59245 90.9023 6.21484 90.707 5.78516C90.5247 5.35547 90.4336 4.89323 90.4336 4.39844C90.4336 3.91667 90.5247 3.46094 90.707 3.03125C90.9023 2.58854 91.1562 2.21094 91.4688 1.89844C91.7943 1.57292 92.1719 1.31901 92.6016 1.13672C93.0443 0.941406 93.513 0.84375 94.0078 0.84375C94.5026 0.84375 94.9648 0.941406 95.3945 1.13672C95.8372 1.31901 96.2214 1.57292 96.5469 1.89844C96.8724 2.21094 97.1263 2.58854 97.3086 3.03125C97.5039 3.46094 97.6016 3.91667 97.6016 4.39844ZM96.6836 31H91.3125V10.082H96.6836V31ZM109.055 4.39844C109.055 4.89323 108.957 5.35547 108.762 5.78516C108.579 6.21484 108.326 6.59245 108 6.91797C107.674 7.23047 107.29 7.48438 106.848 7.67969C106.418 7.86198 105.956 7.95312 105.461 7.95312C104.966 7.95312 104.497 7.86198 104.055 7.67969C103.625 7.48438 103.247 7.23047 102.922 6.91797C102.609 6.59245 102.355 6.21484 102.16 5.78516C101.978 5.35547 101.887 4.89323 101.887 4.39844C101.887 3.91667 101.978 3.46094 102.16 3.03125C102.355 2.58854 102.609 2.21094 102.922 1.89844C103.247 1.57292 103.625 1.31901 104.055 1.13672C104.497 0.941406 104.966 0.84375 105.461 0.84375C105.956 0.84375 106.418 0.941406 106.848 1.13672C107.29 1.31901 107.674 1.57292 108 1.89844C108.326 2.21094 108.579 2.58854 108.762 3.03125C108.957 3.46094 109.055 3.91667 109.055 4.39844ZM108.137 31H102.766V10.082H108.137V31Z" fill="#0084F4"/>
</svg>
