<svg width="20" height="20" viewBox="0 0 20 20" fill="none" xmlns="http://www.w3.org/2000/svg">
<path d="M18.3103 4.67547C17.6196 3.72509 16.4101 2.86729 14.9045 2.26014C13.407 1.6563 11.6683 1.32239 10.0086 1.31999C8.34881 1.31585 6.60798 1.64631 5.10836 2.24548C3.60017 2.84809 2.38774 3.70217 1.69456 4.6503C1.02878 5.56095 0.836896 6.54247 1.13963 7.48877C1.33601 8.10266 1.90888 8.51571 2.56549 8.51666L4.81376 8.51877C4.81449 8.51877 4.81523 8.51877 4.81601 8.51877C5.26432 8.51874 5.68552 8.3225 5.97176 7.98011C6.25498 7.64138 6.3723 7.1987 6.29365 6.7655C6.29137 6.75281 6.28856 6.74015 6.28536 6.7276L6.16706 6.26769C6.82216 5.95512 8.30645 5.35121 10.0017 5.3608C11.6957 5.36949 13.179 5.97305 13.8349 6.28576L13.7147 6.74307C13.7113 6.75601 13.7084 6.76905 13.706 6.78217C13.6261 7.21511 13.7421 7.65812 14.0244 7.99765C14.3101 8.34148 14.7316 8.53899 15.1811 8.53966L17.4294 8.54176C17.4301 8.54176 17.4309 8.54176 17.4316 8.54176C18.087 8.54173 18.66 8.13058 18.8579 7.51798C19.1635 6.5719 18.9741 5.58897 18.3103 4.67547ZM17.8356 7.18773C17.7824 7.35254 17.6163 7.4675 17.4313 7.4675C17.4311 7.4675 17.4308 7.4675 17.4306 7.4675L15.1824 7.46539C15.0528 7.46521 14.9319 7.40893 14.8504 7.31095C14.8062 7.25769 14.7371 7.14691 14.7597 6.99286L14.9834 6.14197C15.0446 5.90878 14.9431 5.66339 14.7349 5.54168C14.6482 5.49099 12.5809 4.29969 10.0072 4.28643C9.99289 4.28636 9.979 4.28633 9.96473 4.28633C7.40758 4.28633 5.35502 5.47242 5.26843 5.52319C5.06161 5.64448 4.96022 5.88811 5.01995 6.12035L5.23918 6.97261C5.26158 7.12698 5.19207 7.23775 5.1476 7.29098C5.06607 7.3885 4.9452 7.4444 4.81569 7.4444C4.81548 7.4444 4.81527 7.4444 4.81506 7.4444L2.56675 7.44229C2.38173 7.44201 2.21561 7.32649 2.16281 7.16132C1.96622 6.54676 2.10044 5.91518 2.56176 5.2842C3.7872 3.6081 6.90906 2.39412 9.99032 2.39412C9.9958 2.39412 10.0017 2.39412 10.0072 2.39412C13.0915 2.39855 16.218 3.62356 17.4413 5.30691C17.9015 5.94032 18.0342 6.57309 17.8356 7.18773Z" fill="#0084F4"/>
<path d="M15.0834 10.837L13.4068 9.07652C13.3053 8.97007 13.1648 8.90985 13.0178 8.90985H11.9343V8.17779C11.9343 7.88115 11.6939 7.64068 11.3972 7.64068C11.1006 7.64068 10.8601 7.88115 10.8601 8.17779V8.90985H9.14018V8.17779C9.14018 7.88115 8.89971 7.64068 8.60307 7.64068C8.30642 7.64068 8.06595 7.88115 8.06595 8.17779V8.90985H6.98247C6.83549 8.90985 6.6949 8.97011 6.59354 9.07652L4.91695 10.837C3.60239 12.2173 2.87842 14.0272 2.87842 15.9333V18.1429C2.87842 18.4396 3.11889 18.6801 3.41553 18.6801H16.5847C16.8814 18.6801 17.1219 18.4396 17.1219 18.1429V15.9333C17.1219 14.0271 16.398 12.2173 15.0834 10.837ZM3.95265 17.6058V15.9333C3.95265 14.3042 4.57136 12.7575 5.69488 11.5778L7.21271 9.98401H12.7876L14.3055 11.5778C15.4289 12.7574 16.0476 14.3042 16.0476 15.9333V17.6058H3.95265Z" fill="#0084F4"/>
<path d="M10.0002 11.0945C8.45016 11.0945 7.18915 12.3556 7.18915 13.9056C7.18915 15.4556 8.4502 16.7167 10.0002 16.7167C11.5502 16.7167 12.8112 15.4556 12.8112 13.9056C12.8112 12.3556 11.5502 11.0945 10.0002 11.0945ZM10.0002 15.6424C9.04247 15.6424 8.26338 14.8633 8.26338 13.9056C8.26338 12.9479 9.04251 12.1687 10.0002 12.1687C10.9579 12.1687 11.737 12.9479 11.737 13.9056C11.737 14.8633 10.9579 15.6424 10.0002 15.6424Z" fill="#0084F4"/>
</svg>
