<svg width="26" height="27" viewBox="0 0 26 27" fill="none" xmlns="http://www.w3.org/2000/svg">
<g filter="url(#filter0_dd)">
<path d="M10.9734 6.66666H5.85982C5.20189 6.66666 4.66669 6.17606 4.66669 5.57285V2.76037C4.66669 2.15727 5.20189 1.66666 5.85982 1.66666H10.9734C11.6315 1.66666 12.1667 2.15727 12.1667 2.76037V5.57285C12.1667 6.17606 11.6315 6.66666 10.9734 6.66666ZM5.85982 2.60416C5.76581 2.60416 5.68941 2.67419 5.68941 2.76037V5.57285C5.68941 5.65913 5.76581 5.72917 5.85982 5.72917H10.9734C11.0676 5.72917 11.144 5.65913 11.144 5.57285V2.76037C11.144 2.67419 11.0676 2.60416 10.9734 2.60416H5.85982Z" fill="#0084F4"/>
<path d="M10.9734 18.3333H5.85982C5.20189 18.3333 4.66669 17.7726 4.66669 17.0834V9.58342C4.66669 8.89403 5.20189 8.33334 5.85982 8.33334H10.9734C11.6315 8.33334 12.1667 8.89403 12.1667 9.58342V17.0834C12.1667 17.7726 11.6315 18.3333 10.9734 18.3333ZM5.85982 9.40476C5.76581 9.40476 5.68941 9.4848 5.68941 9.58342V17.0834C5.68941 17.1819 5.76581 17.2619 5.85982 17.2619H10.9734C11.0676 17.2619 11.144 17.1819 11.144 17.0834V9.58342C11.144 9.4848 11.0676 9.40476 10.9734 9.40476H5.85982Z" fill="#0084F4"/>
<path d="M20.1402 18.3333H15.0266C14.3685 18.3333 13.8333 17.8427 13.8333 17.2396V14.4272C13.8333 13.8239 14.3685 13.3333 15.0266 13.3333H20.1402C20.7981 13.3333 21.3333 13.8239 21.3333 14.4272V17.2396C21.3333 17.8427 20.7981 18.3333 20.1402 18.3333ZM15.0266 14.2708C14.9324 14.2708 14.856 14.3409 14.856 14.4272V17.2396C14.856 17.3258 14.9324 17.3958 15.0266 17.3958H20.1402C20.2342 17.3958 20.3106 17.3258 20.3106 17.2396V14.4272C20.3106 14.3409 20.2342 14.2708 20.1402 14.2708H15.0266Z" fill="#0084F4"/>
<path d="M20.1402 11.6667H15.0266C14.3685 11.6667 13.8333 11.106 13.8333 10.4166V2.91661C13.8333 2.22736 14.3685 1.66666 15.0266 1.66666H20.1402C20.7981 1.66666 21.3333 2.22736 21.3333 2.91661V10.4166C21.3333 11.106 20.7981 11.6667 20.1402 11.6667ZM15.0266 2.73809C14.9324 2.73809 14.856 2.81813 14.856 2.91661V10.4166C14.856 10.5152 14.9324 10.5952 15.0266 10.5952H20.1402C20.2342 10.5952 20.3106 10.5152 20.3106 10.4166V2.91661C20.3106 2.81813 20.2342 2.73809 20.1402 2.73809H15.0266Z" fill="#0084F4"/>
</g>
<defs>
<filter id="filter0_dd" x="-1" y="0" width="28" height="28" filterUnits="userSpaceOnUse" color-interpolation-filters="sRGB">
<feFlood flood-opacity="0" result="BackgroundImageFix"/>
<feColorMatrix in="SourceAlpha" type="matrix" values="0 0 0 0 0 0 0 0 0 0 0 0 0 0 0 0 0 0 127 0"/>
<feOffset dy="4"/>
<feGaussianBlur stdDeviation="2"/>
<feColorMatrix type="matrix" values="0 0 0 0 0 0 0 0 0 0 0 0 0 0 0 0 0 0 0.25 0"/>
<feBlend mode="normal" in2="BackgroundImageFix" result="effect1_dropShadow"/>
<feColorMatrix in="SourceAlpha" type="matrix" values="0 0 0 0 0 0 0 0 0 0 0 0 0 0 0 0 0 0 127 0"/>
<feOffset dy="4"/>
<feGaussianBlur stdDeviation="2"/>
<feColorMatrix type="matrix" values="0 0 0 0 0 0 0 0 0 0 0 0 0 0 0 0 0 0 0.25 0"/>
<feBlend mode="normal" in2="effect1_dropShadow" result="effect2_dropShadow"/>
<feBlend mode="normal" in="SourceGraphic" in2="effect2_dropShadow" result="shape"/>
</filter>
</defs>
</svg>
