<svg width="286" height="205" viewBox="0 0 286 205" fill="none" xmlns="http://www.w3.org/2000/svg">
<path d="M187.26 91.1231L187.126 87.0013C187.126 87.0013 192.765 87.4001 193.971 86.8435C193.971 86.8435 195.446 80.0965 193.687 76.3601L193.652 76.2146L181.751 74.9781L181.011 80.9701C180.61 79.92 177.375 78.8025 176.51 80.3064C174.636 83.5651 181.337 85.7593 181.337 85.7593L180.657 91.1727" fill="#B9D8FE"/>
<path opacity="0.400274" fill-rule="evenodd" clip-rule="evenodd" d="M187.126 87.0012L183.323 86.277L187.108 88.5476L187.126 87.0012Z" fill="black"/>
<path fill-rule="evenodd" clip-rule="evenodd" d="M190.263 80.2655L191.577 83.1188L190.002 83.1367L190.263 80.2655Z" fill="#ABCFFB"/>
<path fill-rule="evenodd" clip-rule="evenodd" d="M181.083 81.0339C180.194 80.2156 179.227 79.8689 178.641 79.725L178.753 77.6598L184.343 76.794C183.957 79.0979 182.461 80.3549 181.083 81.0339V81.0339Z" fill="#A0CAFD"/>
<path fill-rule="evenodd" clip-rule="evenodd" d="M194.017 77.1658C193.514 76.7402 190.231 76.6084 186.285 76.8783C185.368 76.9411 184.488 77.0202 183.674 77.1118C180.985 77.4118 179.006 77.8387 178.683 78.214C178.326 73.5241 181.56 70.731 185.794 70.4712C188.572 70.3004 191.091 71.2633 192.599 73.2693C193.37 74.2974 193.878 75.6004 194.017 77.1658" fill="#8EBAF1"/>
<path fill-rule="evenodd" clip-rule="evenodd" d="M194.081 77.2587H194.079C194.074 77.226 194.052 77.1947 194.017 77.1658C193.514 76.7402 190.231 76.6084 186.285 76.8783C185.368 76.9411 184.488 77.0202 183.674 77.1118C184.832 76.1352 186.949 74.5911 189.446 73.8982C190.514 73.6019 191.597 73.386 192.599 73.2692C195.03 72.983 196.98 73.2768 197.078 74.3978C197.204 75.8565 194.501 77.0779 194.081 77.2587" fill="#8EBAF1"/>
<path fill-rule="evenodd" clip-rule="evenodd" d="M191.954 184.291L191.999 180.896L187.081 178.692L186.367 188.396H203.406C200.507 185.49 191.954 184.291 191.954 184.291ZM170.128 184.423L170.173 180.611L166.966 182.934L164.386 184.212L163.535 188.396H175.197C173.73 184.842 170.128 184.423 170.128 184.423Z" fill="#8DB9F0"/>
<path fill-rule="evenodd" clip-rule="evenodd" d="M170.173 180.611L165.255 179.295L164.386 184.212L170.128 184.423L170.173 180.611ZM191.999 180.897L187.081 179.581L186.684 184.08L191.954 184.291L191.999 180.897Z" fill="#8DB9F0"/>
<path d="M192.703 179.783L192.59 182.934H186.103L186.217 179.774C185.49 179.515 184.971 178.891 184.953 178.153L183.909 130.965L172.626 178.606C172.467 179.276 171.908 179.796 171.199 179.988L170.775 182.934H163.973L164.558 179.682C163.992 179.291 163.664 178.648 163.777 177.962L174.164 114.82L183.551 114.82L183.551 114.796H194.921L194.239 178.065C194.23 178.897 193.579 179.593 192.703 179.783V179.783Z" fill="#8DB9F0"/>
<path opacity="0.197824" fill-rule="evenodd" clip-rule="evenodd" d="M183.851 131.713L185.842 123.859L184.344 147.67L183.851 131.713Z" fill="#8DB9F0"/>
<path d="M176.593 114.879L177.683 115.038L165.801 179.384L164.708 179.221L176.593 114.879Z" fill="#EFEFEF"/>
<path fill-rule="evenodd" clip-rule="evenodd" d="M199.778 117.673C199.778 117.673 197.675 117.901 197.275 118.71C196.13 121.024 198.502 125.162 198.502 125.162C198.502 125.162 197.497 124.635 197.297 125.096C197.208 125.301 197.007 126.94 200.772 127.051C201.172 127.063 202.134 126.363 202.134 126.363C202.134 126.363 201.433 127.515 202.506 127.741C202.506 127.741 204.237 125.512 204.263 125.016C204.29 124.52 203.734 122.009 203.434 121.502C203.134 120.994 199.778 117.673 199.778 117.673ZM171.341 121.711C170.977 120.785 170.653 120.293 170.653 120.293L165.163 120.523C164.605 121.889 164.545 122.358 164.409 123.416C164.403 123.464 164.396 123.512 164.39 123.563C164.265 124.526 164.257 125.495 164.68 126.785C164.953 127.613 165.243 128.318 165.395 128.288C165.776 128.213 165.791 127.791 165.791 127.791L165.611 127.006L165.53 126.24C165.53 126.24 166.884 129.632 166.999 129.613C167.405 129.547 167.469 128.953 167.469 128.953C167.469 128.953 167.894 130.123 168.107 130.081C168.651 129.973 168.599 129.431 168.599 129.431C168.599 129.431 168.771 129.56 168.903 129.527C169.395 129.405 169.38 128.653 169.372 128.213C169.371 128.178 169.37 128.144 169.37 128.113C169.37 128.113 169.152 126.727 169.197 126.299C169.423 124.122 169.814 123.604 170.029 123.32C170.049 123.294 170.068 123.269 170.084 123.245C170.421 123.442 170.545 123.78 170.678 124.139C170.774 124.4 170.874 124.672 171.063 124.909C171.637 125.63 173.238 126.311 172.343 124.66C171.846 123.742 171.722 123.178 171.608 122.654C171.54 122.347 171.476 122.054 171.341 121.711Z" fill="#8DB9F0"/>
<path opacity="0.150646" d="M199.271 120.664C199.271 120.664 199.8 122.38 201.613 122.914C202.247 123.101 202.089 125.309 203.643 125.045" stroke="#8DB8EE" stroke-width="3"/>
<path fill-rule="evenodd" clip-rule="evenodd" d="M180.101 91.3516L180.8 88.7527L183.838 88.9197L185.927 91.2053L187.285 89.1074L188.254 89.1612L188.556 91.5877C192.978 93.0873 193.749 94.5544 194.717 96.3947C194.821 96.5926 194.928 96.7948 195.041 97.0019C196.317 99.332 194.759 115.506 194.759 115.506L175.604 114.725C175.604 114.725 178.199 91.5272 179.899 91.3695C179.967 91.3633 180.034 91.3573 180.101 91.3516Z" fill="#D1E6FF"/>
<path d="M194.371 115.533L195.269 102.742" stroke="#8CB7EE" stroke-width="5"/>
<path fill-rule="evenodd" clip-rule="evenodd" d="M171.419 125.256L170.055 130.749L180.308 131.492C180.308 131.492 181.188 105.203 181.102 97.474C181.062 93.9347 179.9 91.3708 179.9 91.3708C179.9 91.3708 175.343 92.5564 174.31 93.163C171.876 94.592 166.586 101.438 165.645 105.057C164.167 110.738 164.32 120.558 164.32 120.558L172.085 120.233L174.322 109.562L174.663 112.294L171.842 123.592C171.939 123.874 172.02 124.087 172.085 124.23C172.409 124.95 172.594 125.369 172.555 125.526C172.519 125.671 172.359 125.759 171.968 125.581C171.865 125.534 171.682 125.426 171.419 125.256ZM195.331 120.235L196.388 122.184L203.182 118.841L197.64 106.488C197.64 106.488 196.199 96.9204 195.33 95.6429C193.65 93.1728 188.589 91.5999 188.589 91.5999C188.589 91.5999 188.59 91.6013 188.59 91.6026C188.641 91.7171 188.681 92.3799 188.772 93.8657C188.833 94.8701 188.918 96.2505 189.044 98.0918C189.322 102.163 191.964 131.387 191.964 131.387L195.619 131.004L195.331 120.235Z" fill="#8DB9F0"/>
<path fill-rule="evenodd" clip-rule="evenodd" d="M176.361 99.411L180.972 108.072C180.972 108.072 181.108 98.5448 181.045 96.2527C181.001 94.6397 179.9 91.3708 179.9 91.3708L178.069 92.7115C176.907 93.5626 176.608 95.03 177.361 96.186L177.385 96.2233L177.015 96.5206C176.102 97.2523 175.837 98.4253 176.361 99.411ZM188.589 91.5999L189.877 107.99L193.238 99.9228C193.727 98.7508 193.334 97.4338 192.255 96.6275L192.111 96.5206L192.176 96.2278C192.417 95.1277 191.951 93.9995 190.965 93.2955L188.589 91.5999Z" fill="#8DB8EE"/>
<path fill-rule="evenodd" clip-rule="evenodd" d="M114.893 102.458C114.893 106.943 108.978 110.579 101.682 110.579C94.3861 110.579 88.4712 106.943 88.4712 102.458C88.4712 97.9729 94.3861 94.3371 101.682 94.3371C108.978 94.3371 114.893 97.9729 114.893 102.458" fill="#A6C9F4"/>
<path fill-rule="evenodd" clip-rule="evenodd" d="M102.157 93.8166C102.533 96.0863 101.256 98.0223 101.256 98.0223C101.256 98.0223 99.3688 96.2783 98.993 94.0085C98.6172 91.7386 99.8947 89.8027 99.8947 89.8027C99.8947 89.8027 101.782 91.5468 102.157 93.8166" fill="#A6C9F4"/>
<path fill-rule="evenodd" clip-rule="evenodd" d="M101.608 95.2993C103.288 97.3411 103.227 99.4254 103.227 99.4254C103.227 99.4254 100.442 98.1992 98.7607 96.1572C97.0801 94.1154 97.141 92.0312 97.141 92.0312C97.141 92.0312 99.9269 93.2575 101.608 95.2993" fill="#A6C9F4"/>
<path fill-rule="evenodd" clip-rule="evenodd" d="M103.718 94.0634C103.271 96.3286 101.33 98.0509 101.33 98.0509C101.33 98.0509 100.113 96.1007 100.56 93.8355C101.006 91.5705 102.947 89.8482 102.947 89.8482C102.947 89.8482 104.164 91.7984 103.718 94.0634" fill="#A6C9F4"/>
<path fill-rule="evenodd" clip-rule="evenodd" d="M105.117 95.7043C103.711 97.8207 101.095 99.1775 101.095 99.1775C101.095 99.1775 100.76 97.1027 102.167 94.9864C103.573 92.8699 106.189 91.5133 106.189 91.5133C106.189 91.5133 106.524 93.588 105.117 95.7043" fill="#A6C9F4"/>
<path fill-rule="evenodd" clip-rule="evenodd" d="M108.81 116.935H94.5542C92.0351 116.935 89.9933 115.123 89.9933 112.888C89.9933 110.653 92.0351 108.841 94.5542 108.841H108.81C111.329 108.841 113.371 110.653 113.371 112.888C113.371 115.123 111.329 116.935 108.81 116.935" fill="#A6C9F4"/>
<path d="M94.1331 96.7271L91.698 95.0432" stroke="#8EBAF1" stroke-width="1.75978"/>
<path d="M90.663 105.44L88.4712 106.78" stroke="#8EBAF1" stroke-width="1.75978"/>
<path d="M97.0326 104.71L100.815 105.257" stroke="#8EBAF1" stroke-width="1.75978"/>
<path d="M106.704 96.4532L108.988 93.9495" stroke="#8EBAF1" stroke-width="1.75978"/>
<path d="M110.875 99.1775L113.371 97.7592" stroke="#8EBAF1" stroke-width="1.75978"/>
<path d="M111.362 106.505L113.736 107.863" stroke="#8EBAF1" stroke-width="1.75978"/>
<path d="M98.1305 99.7385L97.0006 97.4079" stroke="#8EBAF1" stroke-width="1.75978"/>
<path d="M108.939 102.28L106.224 103.427" stroke="#8EBAF1" stroke-width="1.75978"/>
<path d="M95.8055 100.947L93.2207 99.4214" stroke="#8EBAF1" stroke-width="1.75978"/>
<path d="M129.042 45.4182V119.946" stroke="#8EBAF1" stroke-width="3.91061"/>
<path d="M30.4222 46.0273V119.281" stroke="#8EBAF1" stroke-width="4.30168"/>
<path d="M80.2758 47.824V119.536" stroke="#8EBAF1" stroke-width="4.30168"/>
<path fill-rule="evenodd" clip-rule="evenodd" d="M25.0005 119.946H127.286V45.4182H25.0005V119.946ZM28.6182 116.736H123.668V48.6286H28.6182V116.736Z" fill="#A6C9F4"/>
<path d="M76.9477 45.7367V119.766" stroke="#8EBAF1" stroke-width="4.30168"/>
<path d="M25 82.6821H127.286" stroke="#8EBAF1" stroke-width="4.30168"/>
<path fill-rule="evenodd" clip-rule="evenodd" d="M30.9819 51.4295H123.681V48.5988H30.9819V51.4295Z" fill="#A6C9F4"/>
<path fill-rule="evenodd" clip-rule="evenodd" d="M30.9819 56.4372H123.681V53.6065H30.9819V56.4372Z" fill="#A6C9F4"/>
<path fill-rule="evenodd" clip-rule="evenodd" d="M30.9819 61.4451H123.681V58.6144H30.9819V61.4451Z" fill="#A6C9F4"/>
<path fill-rule="evenodd" clip-rule="evenodd" d="M30.9819 66.4528H123.681V63.6221H30.9819V66.4528Z" fill="#A6C9F4"/>
<path fill-rule="evenodd" clip-rule="evenodd" d="M30.9819 71.4607H123.681V68.63H30.9819V71.4607Z" fill="#A6C9F4"/>
<path d="M48.7562 91.0553L48.6188 86.8016C48.6188 86.8016 54.3829 87.2132 55.616 86.6387C55.616 86.6387 56.9452 80.3734 55.2892 75.6698L43.1254 74.3939L42.26 80.6663C41.8502 79.5825 38.6521 78.3406 37.768 79.8926C35.8526 83.2555 42.7019 85.5198 42.7019 85.5198L42.0064 91.1064" fill="#AFCDF3"/>
<path opacity="0.399344" fill-rule="evenodd" clip-rule="evenodd" d="M48.6188 86.8015L44.7321 86.0542L48.6002 88.3974L48.6188 86.8015Z" fill="black"/>
<path fill-rule="evenodd" clip-rule="evenodd" d="M51.825 79.8503L53.1682 82.7949L51.5584 82.8133L51.825 79.8503Z" fill="#8EBAF1"/>
<path d="M39.961 79.3257C39.4209 77.5244 37.4662 70.8757 37.6965 69.7407C37.963 68.4252 38.9842 66.8104 44.2312 65.1167C48.6767 63.6817 51.1844 64.7208 51.9441 65.605C53.0999 66.9503 55.2891 75.6699 55.2891 75.6699C55.2891 75.6699 53.4777 76.8259 47.0539 76.6265C47.0539 76.6265 47.9432 80.0944 44.2979 79.8951C44.2979 79.8951 44.6886 81.0629 42.9245 81.4303C41.9566 80.0806 40.6721 79.5351 39.961 79.3257V79.3257Z" fill="#5EA2F5"/>
<path fill-rule="evenodd" clip-rule="evenodd" d="M52.8213 186.528L52.8663 183.05L47.8884 180.791L47.166 190.735H64.4123C61.4779 187.756 52.8213 186.528 52.8213 186.528ZM31.2075 186.664L31.2524 182.757L26.1761 182.54L25.7141 186.448L24.5335 190.735H36.3376C34.8535 187.093 31.2075 186.664 31.2075 186.664Z" fill="#8DB9EF"/>
<path fill-rule="evenodd" clip-rule="evenodd" d="M31.2523 182.757L26.2744 181.409L25.714 186.448L31.2076 186.664L31.2523 182.757ZM52.8662 183.05L47.8883 181.702L47.4872 186.312L52.8215 186.528L52.8662 183.05Z" fill="#8DB9EF"/>
<path d="M45.0651 133.035L33.3837 185.057H24.4271L35.1403 116.316H56.3293L55.592 184.792L52.8432 184.827L47.61 184.897H47.5909L46.2564 184.914L45.0651 133.035Z" fill="#8DB9EF"/>
<path opacity="0.200893" fill-rule="evenodd" clip-rule="evenodd" d="M45.0972 132.65L47.1121 124.601L45.596 149.001L45.0972 132.65Z" fill="#8DB9EF"/>
<path fill-rule="evenodd" clip-rule="evenodd" d="M23.1685 106.178C23.5269 110.515 27.6096 112.659 30.7973 113.677L30.5483 114.874C30.1607 116.736 31.8884 118.439 34.1655 118.439H55.0098C57.2454 118.439 58.9618 116.795 58.6433 114.958L58.4375 113.772C61.7336 112.801 66.3019 110.784 66.1872 107.073C66.0098 101.336 59.0053 95.9386 55.281 93.4675C53.9333 92.1583 51.9999 91.6394 49.221 90.8937C48.9064 90.8093 48.581 90.722 48.2445 90.6303C48.2445 90.6303 39.3024 89.3226 34.7747 91.2281C33.5873 91.7278 32.6103 92.4413 31.8084 93.2517C28.1194 95.9328 22.7253 100.812 23.1685 106.178Z" fill="#8EBAF1"/>
<path opacity="0.203218" fill-rule="evenodd" clip-rule="evenodd" d="M47.5142 96.0479C47.5142 96.5457 47.0646 96.9489 46.51 96.9489C45.9552 96.9489 45.5055 96.5457 45.5055 96.0479C45.5055 95.5503 46.51 94.2828 46.51 94.2828C46.51 94.2828 47.5142 95.5503 47.5142 96.0479" fill="black"/>
<path fill-rule="evenodd" clip-rule="evenodd" d="M33.4411 91.7534C33.4411 91.7534 34.5163 86.9911 41.3747 87.0035C44.5915 87.0093 45.2638 88.6109 45.0708 90.3102C45.0653 90.3591 44.8633 90.3341 44.7362 90.3183C44.7082 90.3149 44.6839 90.3118 44.6661 90.3102C44.1785 90.2642 43.9887 90.2547 43.6798 90.2392L43.4939 90.2297C43.4819 90.2291 43.4699 90.2285 43.4578 90.228L46.416 93.1655L48.3255 88.644L52.1614 91.606L46.3454 94.9179C46.3454 94.9179 40.2781 91.4811 38.2816 90.412L33.4411 91.7534ZM56.1623 116.159H47.8628H37.7936L37.9541 114.05C40.4801 113.249 41.9094 110.51 41.8662 104.686L47.6324 104.762L52.7332 104.83C52.7834 109.926 53.8172 112.23 56.0017 113.906L56.1623 116.159Z" fill="#D1E6FF"/>
<path fill-rule="evenodd" clip-rule="evenodd" d="M248.81 85.7398L233.744 86.0784L233.733 85.8642L233.553 82.5867L233.417 80.0923C233.373 79.2931 234.128 78.6401 235.029 78.6989L247.143 79.4866C247.902 79.5349 248.499 80.0785 248.537 80.751L248.602 81.9291L248.781 85.2285L248.81 85.7398Z" fill="#8EBAF1"/>
<path fill-rule="evenodd" clip-rule="evenodd" d="M248.781 85.2284C246.602 85.4875 244.061 85.6914 241.344 85.8077C238.567 85.9274 235.963 85.9401 233.733 85.8641L233.553 82.5866C235.765 82.3194 238.358 82.1087 241.136 81.9901C243.853 81.8738 246.404 81.8588 248.602 81.9291L248.781 85.2284Z" fill="#8EBAF1"/>
<path d="M242.271 98.1871L242.147 94.4058C242.147 94.4058 247.334 94.7717 248.443 94.2611C248.443 94.2611 249.799 88.0715 248.182 84.6439L248.149 84.5103L237.205 83.6064L236.472 88.8006C236.104 87.8371 233.18 86.8845 232.384 88.2641C230.661 91.2535 236.823 93.2664 236.823 93.2664L236.198 98.2326" fill="#ABCFFB"/>
<path opacity="0.398112" fill-rule="evenodd" clip-rule="evenodd" d="M242.147 94.4058L238.65 93.7414L242.131 95.8245L242.147 94.4058Z" fill="#8EBAF1"/>
<path fill-rule="evenodd" clip-rule="evenodd" d="M245.032 88.2266L246.241 90.8442L244.792 90.8605L245.032 88.2266Z" fill="#8EBAF1"/>
<path fill-rule="evenodd" clip-rule="evenodd" d="M248.764 86.5688L248.592 85.7828C248.295 84.7373 239.359 85.1364 239.359 85.1364L239.481 86.5426L239.331 87.2148C232.101 87.3983 226.49 86.8387 226.438 85.8723C226.38 84.8179 232.96 83.6786 241.135 83.3275C249.31 82.9765 255.984 83.5466 256.042 84.601C256.081 85.306 253.152 86.0488 248.764 86.5688L248.764 86.5688Z" fill="#8EBAF1"/>
<path fill-rule="evenodd" clip-rule="evenodd" d="M237.714 90.4244C237.703 90.4023 237.692 90.3798 237.679 90.357C236.538 88.1932 234.537 87.7432 233.985 87.6585C233.89 86.9582 233.819 86.3985 233.819 86.3985C233.73 85.4415 239.359 85.1363 239.359 85.1363C239.359 85.1363 239.909 89.6441 239.562 90.0287C239.346 90.2684 238.586 90.3793 237.714 90.4244V90.4244Z" fill="#8EBAF1"/>
<path fill-rule="evenodd" clip-rule="evenodd" d="M245.984 183.618L246.025 180.507L241.497 178.487L240.84 187.38H256.526C253.857 184.717 245.984 183.618 245.984 183.618ZM226.326 183.739L226.367 180.246L221.75 180.051L221.329 183.546L220.256 187.38H230.992C229.642 184.123 226.326 183.739 226.326 183.739Z" fill="#8EBAF1"/>
<path fill-rule="evenodd" clip-rule="evenodd" d="M226.367 180.246L221.839 179.04L221.329 183.546L226.326 183.739L226.367 180.246ZM246.025 180.508L241.497 179.302L241.133 183.425L245.984 183.618L246.025 180.508Z" fill="#8EBAF1"/>
<path d="M238.93 135.78L228.305 182.303H220.159L229.903 120.829H249.175L248.504 182.065L246.004 182.097L241.244 182.16H241.227L240.013 182.175L238.93 135.78Z" fill="#8EBAF1"/>
<path opacity="0.200893" fill-rule="evenodd" clip-rule="evenodd" d="M238.959 135.435L240.792 128.238L239.413 150.058L238.959 135.435Z" fill="#8EBAF1"/>
<path fill-rule="evenodd" clip-rule="evenodd" d="M253.91 122.927C253.91 122.927 251.944 123.139 251.569 123.895C250.499 126.054 252.717 129.916 252.717 129.916C252.717 129.916 251.777 129.424 251.59 129.854C251.507 130.045 251.318 131.575 254.84 131.678C255.214 131.689 256.114 131.037 256.114 131.037C256.114 131.037 255.458 132.111 256.462 132.322C256.462 132.322 258.08 130.242 258.105 129.779C258.13 129.316 257.61 126.973 257.33 126.5C257.049 126.027 253.91 122.927 253.91 122.927ZM226.648 125.593L226.009 124.517L222.411 124.162C222.151 124.516 221.661 125.347 221.436 125.897C221 126.961 220.953 127.408 220.88 128.099C220.861 128.273 220.841 128.462 220.813 128.681C220.696 129.58 220.688 130.484 221.085 131.687C221.339 132.46 221.611 133.118 221.753 133.09C222.109 133.02 222.123 132.626 222.123 132.626L221.955 131.894L221.879 131.179C221.879 131.179 223.146 134.344 223.253 134.327C223.633 134.265 223.693 133.71 223.693 133.71C223.693 133.71 224.09 134.803 224.29 134.763C224.798 134.662 224.75 134.157 224.75 134.157C224.75 134.157 224.91 134.277 225.034 134.247C225.494 134.132 225.48 133.431 225.472 133.02C225.472 132.987 225.471 132.956 225.471 132.927C225.471 132.927 225.267 131.633 225.308 131.235C225.521 129.202 225.886 128.719 226.087 128.454C226.106 128.429 226.123 128.406 226.139 128.384C226.453 128.568 226.57 128.884 226.694 129.219C226.784 129.462 226.877 129.716 227.054 129.937C227.591 130.61 229.089 131.246 228.251 129.704C227.786 128.848 227.671 128.322 227.563 127.833C227.5 127.546 227.44 127.272 227.314 126.953C226.973 126.088 226.648 125.593 226.648 125.593Z" fill="#8EBAF1"/>
<path opacity="0.145089" d="M253.436 125.718C253.436 125.718 253.931 127.319 255.627 127.818C256.22 127.993 256.072 130.052 257.525 129.806" stroke="#8EBAF1" stroke-width="2.93377"/>
<path d="M235.319 98.3813L235.494 95.9025L243.604 96.3468L243.446 98.5954C247.997 100.142 248.391 101.652 249.48 103.637C250.674 105.812 251.911 112.49 251.911 112.49L257.094 124.017L250.74 127.136L249.178 124.467L249.217 120.904L229.8 120.904L229.664 116.517L228.01 125.316L220.748 125.619C220.748 125.619 220.604 116.455 221.987 111.154C222.867 107.777 227.168 101.502 231.241 99.3441C232.236 98.8172 233.729 98.5285 235.319 98.3813V98.3813Z" fill="#8EBAF1"/>
<path fill-rule="evenodd" clip-rule="evenodd" d="M126.494 158.862C124.556 158.862 122.986 160.874 122.986 163.357C122.986 165.839 124.556 167.851 126.494 167.851C128.431 167.851 130.001 165.839 130.001 163.357C130.001 160.874 128.431 158.862 126.494 158.862" fill="#8EBAF1"/>
<path d="M126.516 163.591V113.864" stroke="#8EBAF1" stroke-width="19.5584"/>
<path fill-rule="evenodd" clip-rule="evenodd" d="M101.633 138.368H129.428V112.812H101.633V138.368Z" fill="#8EBAF1"/>
<path d="M101.445 163.591V113.864L91.1979 116.607" stroke="#8EBAF1" stroke-width="19.5584" stroke-linejoin="round"/>
<path d="M114.35 149.571L138.637 177.142" stroke="#8EBAF1" stroke-width="6.84545"/>
<path d="M138.637 149.571L114.35 177.142" stroke="#8EBAF1" stroke-width="6.84545"/>
<path d="M111.912 163.357H141.075" stroke="#8EBAF1" stroke-width="6.84545"/>
<path d="M126.494 143.269V183.444" stroke="#8EBAF1" stroke-width="6.84545"/>
<path fill-rule="evenodd" clip-rule="evenodd" d="M126.516 141.466C116.98 141.466 109.249 151.372 109.249 163.591C109.249 175.811 116.98 185.716 126.516 185.716C136.052 185.716 143.783 175.811 143.783 163.591C143.783 151.372 136.052 141.466 126.516 141.466M126.516 144.932C129.798 144.932 132.986 146.7 135.492 149.912C136.84 151.639 137.904 153.67 138.657 155.949C139.453 158.361 139.857 160.933 139.857 163.591C139.857 166.25 139.453 168.821 138.657 171.234C137.904 173.513 136.84 175.544 135.492 177.27C132.986 180.482 129.798 182.251 126.516 182.251C123.234 182.251 120.046 180.482 117.539 177.27C116.192 175.544 115.127 173.513 114.375 171.234C113.578 168.821 113.175 166.25 113.175 163.591C113.175 160.933 113.578 158.361 114.375 155.949C115.127 153.67 116.192 151.639 117.539 149.912C120.046 146.7 123.234 144.932 126.516 144.932" fill="#8EBAF1"/>
<path d="M101.423 143.269V183.444" stroke="#8EBAF1" stroke-width="6.84545"/>
<path d="M148.783 174.083V137.398" stroke="#8EBAF1" stroke-width="19.5584"/>
<path fill-rule="evenodd" clip-rule="evenodd" d="M149.435 172.668C146.623 172.668 144.343 175.589 144.343 179.192C144.343 182.795 146.623 185.716 149.435 185.716C152.247 185.716 154.526 182.795 154.526 179.192C154.526 175.589 152.247 172.668 149.435 172.668M149.435 175.515C149.977 175.515 151.302 176.803 151.302 179.192C151.302 181.581 149.977 182.87 149.435 182.87C148.893 182.87 147.568 181.581 147.568 179.192C147.568 176.803 148.893 175.515 149.435 175.515" fill="#8EBAF1"/>
<path fill-rule="evenodd" clip-rule="evenodd" d="M108.217 151.323H148.783V145.764H108.217V151.323Z" fill="#8EBAF1"/>
<path fill-rule="evenodd" clip-rule="evenodd" d="M102.048 151.323H124.04V145.764H102.048V151.323Z" fill="#8EBAF1"/>
<path fill-rule="evenodd" clip-rule="evenodd" d="M157.211 173.731L157.252 170.475L152.803 168.361L152.157 177.669H167.571C164.948 174.881 157.211 173.731 157.211 173.731ZM138.136 173.602L138.178 169.73L133.374 169.515L132.936 173.388L131.819 177.638H142.991C141.587 174.028 138.136 173.602 138.136 173.602Z" fill="#8EBAF1"/>
<path fill-rule="evenodd" clip-rule="evenodd" d="M138.178 169.73L133.467 168.394L132.936 173.388L138.136 173.603L138.178 169.73ZM157.252 170.475L152.803 169.214L152.444 173.529L157.211 173.731L157.252 170.475Z" fill="#8EBAF1"/>
<path fill-rule="evenodd" clip-rule="evenodd" d="M130.424 180.715H168.742V177.669H130.424V180.715Z" fill="#8EBAF1"/>
<path fill-rule="evenodd" clip-rule="evenodd" d="M128.91 180.715H141.737V177.669H128.91V180.715Z" fill="#8EBAF1"/>
<path fill-rule="evenodd" clip-rule="evenodd" d="M101.445 141.466C91.9089 141.466 84.1783 151.372 84.1783 163.591C84.1783 175.811 91.9089 185.716 101.445 185.716C110.981 185.716 118.712 175.811 118.712 163.591C118.712 151.372 110.981 141.466 101.445 141.466M101.445 144.932C104.727 144.932 107.915 146.7 110.422 149.912C111.769 151.639 112.834 153.67 113.586 155.949C114.382 158.361 114.786 160.933 114.786 163.591C114.786 166.25 114.382 168.821 113.586 171.234C112.834 173.513 111.769 175.544 110.422 177.27C107.915 180.482 104.727 182.251 101.445 182.251C98.1631 182.251 94.9752 180.482 92.4685 177.27C91.121 175.544 90.0564 173.513 89.3042 171.234C88.5079 168.821 88.1041 166.25 88.1041 163.591C88.1041 160.933 88.5079 158.361 89.3042 155.949C90.0564 153.67 91.121 151.639 92.4685 149.912C94.9752 146.7 98.1631 144.932 101.445 144.932" fill="#8EBAF1"/>
<path d="M122.591 174.083L122.55 146.164" stroke="#8EBAF1" stroke-width="19.5584"/>
<path fill-rule="evenodd" clip-rule="evenodd" d="M124.364 172.668C121.552 172.668 119.273 175.589 119.273 179.192C119.273 182.795 121.552 185.716 124.364 185.716C127.176 185.716 129.456 182.795 129.456 179.192C129.456 175.589 127.176 172.668 124.364 172.668M124.364 175.515C124.906 175.515 126.231 176.803 126.231 179.192C126.231 181.581 124.906 182.87 124.364 182.87C123.822 182.87 122.497 181.581 122.497 179.192C122.497 176.803 123.822 175.515 124.364 175.515" fill="#8EBAF1"/>
<path fill-rule="evenodd" clip-rule="evenodd" d="M101.293 158.715C99.3558 158.715 97.7854 160.727 97.7854 163.209C97.7854 165.692 99.3558 167.704 101.293 167.704C103.23 167.704 104.801 165.692 104.801 163.209C104.801 160.727 103.23 158.715 101.293 158.715" fill="#8EBAF1"/>
<path d="M90.8222 151.323L111.764 175.096" stroke="#8EBAF1" stroke-width="6.84545"/>
<path d="M111.61 151.793L90.4368 175.828" stroke="#8EBAF1" stroke-width="6.84545"/>
<path d="M87.3806 163.357H114.703" stroke="#8EBAF1" stroke-width="6.84545"/>
<path d="M143.371 146.164L140.358 171.85H132.254L133.625 146.164H123.672C119.319 146.164 115.79 143.084 115.79 139.285V136.227H127.424L154.298 136.227C159.933 136.227 164.294 140.577 163.596 145.504L159.703 171.85H151.461L151.84 146.164H143.371Z" fill="#8EBAF1"/>
<path fill-rule="evenodd" clip-rule="evenodd" d="M115.79 136.227H137.688C141.343 136.227 144.2 138.979 143.842 142.154L140.358 171.85H132.254L133.625 146.164H123.672C119.319 146.164 115.79 143.084 115.79 139.285V136.227Z" fill="#8EBAF1"/>
<path fill-rule="evenodd" clip-rule="evenodd" d="M134.998 99.3187C134.998 99.3187 138.701 103.613 133.674 104.753L134.998 99.3187Z" fill="#8EBAF1"/>
<path d="M128.098 114.081L127.975 110.295C127.975 110.295 133.275 110.661 134.381 110.15C134.381 110.15 135.222 105.548 134.422 102.286L130.071 98.7895L123.048 99.2497L122.25 104.906C121.883 103.942 118.537 102.732 117.734 104.896C116.699 107.687 122.668 109.154 122.668 109.154L122.044 114.127" fill="#A4CBFA"/>
<path d="M119.817 99.0341L118.097 97.4751L119.036 96.6595L120.607 98.0832L120.759 98.0181L120.354 96.0122L121.648 95.8065L121.972 97.414C125.105 95.7125 127.579 97.0388 127.579 97.0388C127.579 97.0388 128.577 93.3123 131.341 93.323C135.278 93.3381 135.885 98.7514 135.885 98.7514C135.885 98.7514 137.87 95.8074 138.998 96.2282C140.126 96.6491 140.158 106.427 124.493 101.662C124.493 101.662 125.84 104.359 122.25 104.906C122.25 104.906 121.625 103.755 119.503 103.69C119.503 103.69 116.241 102.509 119.817 99.0341Z" fill="#8EBAF1"/>
<path opacity="0.4" fill-rule="evenodd" clip-rule="evenodd" d="M127.975 110.295L124.489 109.629L127.958 111.715L127.975 110.295Z" fill="#8EBAF1"/>
<path fill-rule="evenodd" clip-rule="evenodd" d="M130.917 104.597L132.122 107.218L130.678 107.235L130.917 104.597Z" fill="#8EBAF1"/>
<path fill-rule="evenodd" clip-rule="evenodd" d="M120.885 113.311C121.223 113.834 122.702 115.767 126.207 115.95C129.593 116.125 129.342 114.534 129.166 114.002C129.086 113.983 129.007 113.964 128.927 113.944C128.183 113.761 127.39 113.566 126.305 113.467C123.342 113.194 123.11 113.174 120.885 113.311ZM147.723 121.744C146.111 124.552 140.455 133.768 136.422 132.298C133.403 131.197 129.788 122.072 129.788 122.072L135.664 118.969L138.304 125.24L143.695 120.044C143.511 119.014 143.365 117.668 143.73 117.193C144.351 116.386 147.494 113.897 147.494 113.897L148.067 118.113L148.167 117.758C148.166 117.738 148.172 117.717 148.183 117.694L148.187 117.687L148.418 116.864C148.321 116.821 148.281 116.759 148.323 116.673C148.357 116.603 148.431 116.527 148.535 116.447L149.325 113.638C149.325 113.638 149.585 113.74 149.965 113.893C150.576 113.781 152.79 115.117 152.824 115.137L152.824 115.137C153.275 115.396 152.203 119.666 151.332 120.459C150.712 121.024 148.784 121.51 147.723 121.744ZM111.728 140.786L112.088 141.392C112.088 141.392 112.413 141.887 112.754 142.752C112.88 143.071 112.94 143.345 113.003 143.632C113.111 144.121 113.226 144.647 113.691 145.503C114.529 147.045 113.031 146.409 112.494 145.736C112.317 145.515 112.224 145.261 112.134 145.018C112.01 144.683 111.893 144.367 111.579 144.183C111.563 144.205 111.546 144.228 111.527 144.253C111.326 144.518 110.961 145.002 110.748 147.034C110.707 147.432 110.911 148.726 110.911 148.726C110.911 148.755 110.912 148.786 110.912 148.819C110.92 149.23 110.934 149.932 110.474 150.046C110.35 150.076 110.19 149.955 110.19 149.955C110.19 149.955 110.238 150.461 109.73 150.562C109.53 150.602 109.133 149.509 109.133 149.509C109.133 149.509 109.073 150.064 108.693 150.126C108.586 150.143 107.319 146.978 107.319 146.978L107.395 147.693L107.563 148.425C107.563 148.425 107.549 148.819 107.193 148.889C107.051 148.917 106.779 148.26 106.525 147.486C106.128 146.283 106.136 145.379 106.253 144.48C106.281 144.262 106.301 144.073 106.32 143.899C106.393 143.208 106.44 142.761 106.876 141.696C106.941 141.536 107.029 141.353 107.126 141.165C106.827 138.875 105.985 132.17 106.088 130.111C106.213 127.615 109.194 122.072 109.194 122.072L115.247 125.074L111.911 130.468L111.728 140.786Z" fill="#8EBAF1"/>
<path fill-rule="evenodd" clip-rule="evenodd" d="M115.064 136.171H134.482L135.193 125.536L138.601 123.773L136.213 118.902L136.192 118.906C136.093 118.729 135.984 118.545 135.864 118.354C134.382 115.986 131.848 114.65 129.165 114.002C129.122 113.992 129.104 113.984 129.102 113.987C129.098 113.994 129.191 114.063 129.217 114.306C129.254 114.645 129.133 115.106 129.006 115.246C128.706 115.576 128.254 115.764 128.071 115.808C127.889 115.852 127.745 115.878 127.584 115.906C127.471 115.926 126.828 115.968 126.717 115.963C125.803 115.921 125.355 115.883 124.779 115.762C124.575 115.719 124.364 115.67 124.114 115.577C124.067 115.559 124.016 115.54 123.961 115.52C123.691 115.422 123.331 115.291 122.965 115.109C122.579 114.918 122.185 114.665 121.9 114.407C121.872 114.382 121.845 114.358 121.819 114.334C121.52 114.063 121.316 113.879 121.174 113.694C121.078 113.568 121.042 113.527 121.021 113.502C121.008 113.487 121.001 113.479 120.989 113.462C120.957 113.417 120.93 113.377 120.923 113.351C120.914 113.322 120.944 113.31 120.943 113.307C120.942 113.305 120.929 113.307 120.885 113.311C119.519 113.43 118.05 113.743 116.448 114.407C111.494 116.457 108.599 121.609 108.599 121.609L114.739 125.683L115.064 136.171Z" fill="#8EBAF1"/>
<path d="M150.295 118.864L150.024 120.042H145.63L147.703 110.667H152.096C151.982 111.182 151.714 112.395 151.291 114.307L150.427 113.953L150.158 113.887L149.947 113.897L149.855 113.953V114.18L150.794 115.375L150.075 115.652L148.97 116.165L148.651 116.361L148.527 116.463L148.426 116.543L148.362 116.611L148.323 116.673L148.306 116.753L148.323 116.788L148.342 116.815L148.37 116.84L148.732 116.953L149.559 116.753H150.376L149.285 116.953L148.567 117.333L148.323 117.537L148.185 117.687V117.823L148.426 117.919L149.947 117.765L149.443 118.007L149.109 118.19L148.804 118.33L148.567 118.6V118.733L148.651 118.812L148.863 118.912H149.187H149.839L150.295 118.864Z" fill="#8EBAF1"/>
<path fill-rule="evenodd" clip-rule="evenodd" d="M145.63 120.042H144.903L146.975 110.667H147.702L145.63 120.042Z" fill="#8EBAF1"/>
<path fill-rule="evenodd" clip-rule="evenodd" d="M148.459 111.755C148.398 112.029 148.218 112.229 148.057 112.201C147.895 112.173 147.814 111.928 147.874 111.654C147.935 111.38 148.115 111.181 148.277 111.209C148.438 111.237 148.519 111.481 148.459 111.755" fill="#8EBAF1"/>
<path fill-rule="evenodd" clip-rule="evenodd" d="M182.045 10.5457C182.045 16.2387 176.844 20.8538 170.428 20.8538C164.012 20.8538 158.811 16.2387 158.811 10.5457C158.811 4.85261 164.012 0.23761 170.428 0.23761C176.844 0.23761 182.045 4.85261 182.045 10.5457" fill="#8EBAF1"/>
<path fill-rule="evenodd" clip-rule="evenodd" d="M179.767 10.5457C179.767 16.2387 174.566 20.8538 168.15 20.8538C161.734 20.8538 156.533 16.2387 156.533 10.5457C156.533 4.85261 161.734 0.23761 168.15 0.23761C174.566 0.23761 179.767 4.85261 179.767 10.5457" fill="#8EBAF1"/>
<path fill-rule="evenodd" clip-rule="evenodd" d="M176.953 10.545C176.953 14.5687 173.526 17.881 169.122 18.3103C168.803 18.3416 168.479 18.3572 168.151 18.3572C163.288 18.3572 159.347 14.86 159.347 10.545C159.347 6.23152 163.288 2.73425 168.151 2.73425C168.479 2.73425 168.803 2.74999 169.122 2.7813C173.526 3.2106 176.953 6.52286 176.953 10.545" fill="#8EBAF1"/>
<path fill-rule="evenodd" clip-rule="evenodd" d="M176.953 10.545C176.953 14.5687 173.526 17.8809 169.122 18.3102C164.716 17.8809 161.289 14.5687 161.289 10.545C161.289 6.52284 164.716 3.21057 169.122 2.78128C173.526 3.21057 176.953 6.52284 176.953 10.545" fill="#B0CFF3"/>
<path d="M168.532 6.20178L171.384 11.722" stroke="#8EBAF1" stroke-width="1.34857"/>
<path d="M171.656 9.40775L165.408 15.4341" stroke="#8EBAF1" stroke-width="1.34857"/>
</svg>
