<svg width="286" height="231" viewBox="0 0 286 231" fill="none" xmlns="http://www.w3.org/2000/svg">
<path d="M187.26 102.663L187.126 98.0182C187.126 98.0182 192.765 98.4677 193.971 97.8404C193.971 97.8404 195.446 90.2367 193.687 86.0259L193.652 85.8619L181.751 84.4684L181.011 91.2212C180.61 90.0378 177.375 88.7784 176.51 90.4732C174.636 94.1457 181.337 96.6185 181.337 96.6185L180.657 102.719" fill="#B9D8FE"/>
<path opacity="0.400274" fill-rule="evenodd" clip-rule="evenodd" d="M187.126 98.0181L183.323 97.202L187.108 99.7609L187.126 98.0181Z" fill="black"/>
<path fill-rule="evenodd" clip-rule="evenodd" d="M190.263 90.4272L191.577 93.6428L190.002 93.6629L190.263 90.4272Z" fill="#ABCFFB"/>
<path fill-rule="evenodd" clip-rule="evenodd" d="M181.083 91.2932C180.194 90.371 179.227 89.9803 178.641 89.818L178.753 87.4906L184.343 86.5149C183.957 89.1113 182.461 90.5279 181.083 91.2932Z" fill="#A0CAFD"/>
<path fill-rule="evenodd" clip-rule="evenodd" d="M194.017 86.9339C193.514 86.4543 190.231 86.3057 186.285 86.6099C185.368 86.6806 184.488 86.7698 183.674 86.873C180.985 87.2112 179.006 87.6922 178.683 88.1152C178.326 82.8298 181.56 79.682 185.794 79.3892C188.572 79.1968 191.091 80.2819 192.599 82.5426C193.37 83.7012 193.878 85.1697 194.017 86.9339Z" fill="#8EBAF1"/>
<path fill-rule="evenodd" clip-rule="evenodd" d="M194.081 87.0385H194.079C194.074 87.0018 194.052 86.9664 194.017 86.9339C193.514 86.4543 190.231 86.3057 186.285 86.6099C185.368 86.6806 184.488 86.7698 183.674 86.873C184.832 85.7724 186.949 84.0323 189.446 83.2513C190.514 82.9175 191.597 82.6741 192.599 82.5426C195.03 82.22 196.98 82.5511 197.078 83.8144C197.204 85.4583 194.501 86.8348 194.081 87.0385Z" fill="#8EBAF1"/>
<path fill-rule="evenodd" clip-rule="evenodd" d="M191.954 207.661L191.999 203.836L187.081 201.351L186.367 212.288H203.406C200.507 209.012 191.954 207.661 191.954 207.661ZM170.128 207.811L170.173 203.514L166.966 206.132L164.386 207.573L163.535 212.288H175.197C173.73 208.282 170.128 207.811 170.128 207.811Z" fill="#8DB9F0"/>
<path fill-rule="evenodd" clip-rule="evenodd" d="M170.173 203.514L165.255 202.031L164.386 207.573L170.128 207.811L170.173 203.514ZM191.999 203.836L187.081 202.354L186.684 207.424L191.954 207.661L191.999 203.836Z" fill="#8DB9F0"/>
<path d="M192.703 202.582L192.59 206.132H186.103L186.217 202.571C185.49 202.279 184.971 201.575 184.953 200.744L183.909 147.564L172.626 201.254C172.467 202.009 171.908 202.596 171.199 202.812L170.775 206.132H163.973L164.558 202.467C163.992 202.026 163.664 201.302 163.777 200.529L174.164 129.369L183.551 129.369L183.551 129.342H194.921L194.239 200.645C194.23 201.583 193.579 202.367 192.703 202.582Z" fill="#8DB9F0"/>
<path opacity="0.197824" fill-rule="evenodd" clip-rule="evenodd" d="M183.851 148.407L185.842 139.556L184.344 166.39L183.851 148.407Z" fill="#8DB9F0"/>
<path d="M176.593 129.436L177.683 129.615L165.801 202.131L164.708 201.948L176.593 129.436Z" fill="#EFEFEF"/>
<path fill-rule="evenodd" clip-rule="evenodd" d="M199.778 132.585C199.778 132.585 197.675 132.841 197.275 133.753C196.13 136.362 198.502 141.025 198.502 141.025C198.502 141.025 197.497 140.431 197.297 140.95C197.208 141.181 197.007 143.029 200.772 143.153C201.172 143.166 202.134 142.378 202.134 142.378C202.134 142.378 201.433 143.676 202.506 143.931C202.506 143.931 204.237 141.418 204.263 140.859C204.29 140.3 203.734 137.471 203.434 136.899C203.134 136.328 199.778 132.585 199.778 132.585ZM171.341 137.135C170.977 136.091 170.653 135.538 170.653 135.538L165.163 135.796C164.605 137.336 164.545 137.864 164.409 139.057C164.403 139.11 164.396 139.165 164.39 139.222C164.265 140.308 164.257 141.4 164.68 142.853C164.953 143.787 165.243 144.581 165.395 144.547C165.776 144.463 165.791 143.987 165.791 143.987L165.611 143.103L165.53 142.24C165.53 142.24 166.884 146.062 166.999 146.041C167.405 145.966 167.469 145.296 167.469 145.296C167.469 145.296 167.894 146.616 168.107 146.568C168.651 146.446 168.599 145.835 168.599 145.835C168.599 145.835 168.771 145.981 168.903 145.944C169.395 145.806 169.38 144.959 169.372 144.463C169.371 144.423 169.37 144.385 169.37 144.351C169.37 144.351 169.152 142.788 169.197 142.306C169.423 139.853 169.814 139.269 170.029 138.949C170.049 138.919 170.068 138.891 170.084 138.864C170.421 139.086 170.545 139.467 170.678 139.872C170.774 140.166 170.874 140.472 171.063 140.739C171.637 141.552 173.238 142.32 172.343 140.458C171.846 139.425 171.722 138.789 171.608 138.198C171.54 137.852 171.476 137.521 171.341 137.135Z" fill="#8DB9F0"/>
<path opacity="0.150646" d="M199.271 135.955C199.271 135.955 199.8 137.889 201.613 138.491C202.247 138.702 202.089 141.19 203.643 140.892" stroke="#8DB8EE" stroke-width="3"/>
<path fill-rule="evenodd" clip-rule="evenodd" d="M180.101 102.921L180.8 99.992L183.838 100.18L185.927 102.756L187.285 100.392L188.254 100.452L188.556 103.187C192.978 104.877 193.749 106.53 194.717 108.604C194.821 108.827 194.928 109.055 195.041 109.289C196.317 111.915 194.759 130.142 194.759 130.142L175.604 129.262C175.604 129.262 178.199 103.119 179.899 102.941C179.967 102.934 180.034 102.927 180.101 102.921Z" fill="#D1E6FF"/>
<path d="M194.371 130.173L195.269 115.758" stroke="#8CB7EE" stroke-width="5"/>
<path fill-rule="evenodd" clip-rule="evenodd" d="M171.419 141.131L170.055 147.321L180.308 148.159C180.308 148.159 181.188 118.531 181.102 109.821C181.062 105.832 179.9 102.943 179.9 102.943C179.9 102.943 175.343 104.279 174.31 104.962C171.876 106.573 166.586 114.288 165.645 118.366C164.167 124.769 164.32 135.836 164.32 135.836L172.085 135.47L174.322 123.443L174.663 126.522L171.842 139.256C171.939 139.573 172.02 139.813 172.085 139.975C172.409 140.786 172.594 141.258 172.555 141.434C172.519 141.598 172.359 141.697 171.968 141.497C171.865 141.444 171.682 141.322 171.419 141.131ZM195.331 135.472L196.388 137.668L203.182 133.901L197.64 119.979C197.64 119.979 196.199 109.197 195.33 107.757C193.65 104.973 188.589 103.201 188.589 103.201C188.589 103.201 188.59 103.202 188.59 103.204C188.641 103.333 188.681 104.08 188.772 105.754C188.833 106.886 188.918 108.442 189.044 110.517C189.322 115.106 191.964 148.04 191.964 148.04L195.619 147.609L195.331 135.472Z" fill="#8DB9F0"/>
<path fill-rule="evenodd" clip-rule="evenodd" d="M176.361 112.004L180.972 121.764C180.972 121.764 181.108 111.028 181.045 108.444C181.001 106.627 179.9 102.943 179.9 102.943L178.069 104.454C176.907 105.413 176.608 107.066 177.361 108.369L177.385 108.411L177.015 108.746C176.102 109.571 175.837 110.893 176.361 112.004ZM188.589 103.201L189.877 121.672L193.238 112.58C193.727 111.26 193.334 109.775 192.255 108.867L192.111 108.746L192.176 108.416C192.417 107.176 191.951 105.905 190.965 105.112L188.589 103.201Z" fill="#8DB8EE"/>
<path fill-rule="evenodd" clip-rule="evenodd" d="M114.893 115.438C114.893 120.492 108.978 124.59 101.682 124.59C94.3861 124.59 88.4712 120.492 88.4712 115.438C88.4712 110.383 94.3861 106.286 101.682 106.286C108.978 106.286 114.893 110.383 114.893 115.438Z" fill="#A6C9F4"/>
<path fill-rule="evenodd" clip-rule="evenodd" d="M102.157 105.699C102.533 108.257 101.256 110.439 101.256 110.439C101.256 110.439 99.3688 108.473 98.993 105.915C98.6172 103.357 99.8947 101.175 99.8947 101.175C99.8947 101.175 101.782 103.141 102.157 105.699Z" fill="#A6C9F4"/>
<path fill-rule="evenodd" clip-rule="evenodd" d="M101.608 107.37C103.288 109.671 103.227 112.02 103.227 112.02C103.227 112.02 100.442 110.638 98.7607 108.337C97.0801 106.036 97.141 103.687 97.141 103.687C97.141 103.687 99.9269 105.069 101.608 107.37Z" fill="#A6C9F4"/>
<path fill-rule="evenodd" clip-rule="evenodd" d="M103.718 105.977C103.271 108.53 101.33 110.471 101.33 110.471C101.33 110.471 100.113 108.273 100.56 105.72C101.006 103.168 102.947 101.227 102.947 101.227C102.947 101.227 104.164 103.424 103.718 105.977Z" fill="#A6C9F4"/>
<path fill-rule="evenodd" clip-rule="evenodd" d="M105.117 107.826C103.711 110.211 101.095 111.741 101.095 111.741C101.095 111.741 100.76 109.402 102.167 107.017C103.573 104.632 106.189 103.103 106.189 103.103C106.189 103.103 106.524 105.441 105.117 107.826Z" fill="#A6C9F4"/>
<path fill-rule="evenodd" clip-rule="evenodd" d="M108.81 131.752H94.5542C92.0351 131.752 89.9933 129.71 89.9933 127.191C89.9933 124.673 92.0351 122.631 94.5542 122.631H108.81C111.329 122.631 113.371 124.673 113.371 127.191C113.371 129.71 111.329 131.752 108.81 131.752Z" fill="#A6C9F4"/>
<path d="M94.1331 108.979L91.698 107.081" stroke="#8EBAF1" stroke-width="1.75978"/>
<path d="M90.663 118.799L88.4712 120.308" stroke="#8EBAF1" stroke-width="1.75978"/>
<path d="M97.0326 117.975L100.815 118.592" stroke="#8EBAF1" stroke-width="1.75978"/>
<path d="M106.704 108.67L108.988 105.849" stroke="#8EBAF1" stroke-width="1.75978"/>
<path d="M110.875 111.741L113.371 110.142" stroke="#8EBAF1" stroke-width="1.75978"/>
<path d="M111.362 119.998L113.736 121.529" stroke="#8EBAF1" stroke-width="1.75978"/>
<path d="M98.1305 112.373L97.0006 109.746" stroke="#8EBAF1" stroke-width="1.75978"/>
<path d="M108.939 115.237L106.224 116.53" stroke="#8EBAF1" stroke-width="1.75978"/>
<path d="M95.8055 113.735L93.2207 112.015" stroke="#8EBAF1" stroke-width="1.75978"/>
<path d="M129.042 51.1551V135.146" stroke="#8EBAF1" stroke-width="3.91061"/>
<path d="M30.4222 51.8415V134.397" stroke="#8EBAF1" stroke-width="4.30168"/>
<path d="M80.2758 53.8664V134.684" stroke="#8EBAF1" stroke-width="4.30168"/>
<path fill-rule="evenodd" clip-rule="evenodd" d="M25.0005 135.146H127.286V51.155H25.0005V135.146ZM28.6182 131.528H123.668V54.7731H28.6182V131.528Z" fill="#A6C9F4"/>
<path d="M76.9477 51.514V134.943" stroke="#8EBAF1" stroke-width="4.30168"/>
<path d="M25 93.1506H127.286" stroke="#8EBAF1" stroke-width="4.30168"/>
<path fill-rule="evenodd" clip-rule="evenodd" d="M30.9819 57.9297H123.681V54.7396H30.9819V57.9297Z" fill="#A6C9F4"/>
<path fill-rule="evenodd" clip-rule="evenodd" d="M30.9819 63.5733H123.681V60.3831H30.9819V63.5733Z" fill="#A6C9F4"/>
<path fill-rule="evenodd" clip-rule="evenodd" d="M30.9819 69.217H123.681V66.0269H30.9819V69.217Z" fill="#A6C9F4"/>
<path fill-rule="evenodd" clip-rule="evenodd" d="M30.9819 74.8606H123.681V71.6704H30.9819V74.8606Z" fill="#A6C9F4"/>
<path fill-rule="evenodd" clip-rule="evenodd" d="M30.9819 80.5043H123.681V77.3142H30.9819V80.5043Z" fill="#A6C9F4"/>
<path d="M48.7562 102.587L48.6188 97.7932C48.6188 97.7932 54.3829 98.257 55.616 97.6096C55.616 97.6096 56.9452 90.5488 55.2892 85.2479L43.1254 83.81L42.26 90.8788C41.8502 89.6574 38.6521 88.2578 37.768 90.0069C35.8526 93.7968 42.7019 96.3487 42.7019 96.3487L42.0064 102.645" fill="#AFCDF3"/>
<path opacity="0.399344" fill-rule="evenodd" clip-rule="evenodd" d="M48.6188 97.7931L44.7321 96.9509L48.6002 99.5916L48.6188 97.7931Z" fill="black"/>
<path fill-rule="evenodd" clip-rule="evenodd" d="M51.825 89.9593L53.1682 93.2778L51.5584 93.2985L51.825 89.9593Z" fill="#8EBAF1"/>
<path d="M39.961 89.368C39.4209 87.338 37.4662 79.8451 37.6965 78.5659C37.963 77.0835 38.9842 75.2636 44.2312 73.3548C48.6767 71.7376 51.1844 72.9087 51.9441 73.9051C53.0999 75.4213 55.2891 85.248 55.2891 85.248C55.2891 85.248 53.4777 86.5508 47.0539 86.3261C47.0539 86.3261 47.9432 90.2343 44.2979 90.0097C44.2979 90.0097 44.6886 91.3259 42.9245 91.7398C41.9566 90.2187 40.6721 89.604 39.961 89.368Z" fill="#5EA2F5"/>
<path fill-rule="evenodd" clip-rule="evenodd" d="M52.8213 210.183L52.8663 206.262L47.8884 203.717L47.166 214.923H64.4123C61.4779 211.567 52.8213 210.183 52.8213 210.183ZM31.2075 210.335L31.2524 205.932L26.1761 205.688L25.7141 210.092L24.5335 214.923H36.3376C34.8535 210.819 31.2075 210.335 31.2075 210.335Z" fill="#8DB9EF"/>
<path fill-rule="evenodd" clip-rule="evenodd" d="M31.2523 205.932L26.2744 204.413L25.714 210.092L31.2076 210.335L31.2523 205.932ZM52.8662 206.263L47.8883 204.744L47.4872 209.939L52.8215 210.183L52.8662 206.263Z" fill="#8DB9EF"/>
<path d="M45.0651 149.897L33.3837 208.525H24.4271L35.1403 131.056H56.3293L55.592 208.226L52.8432 208.266L47.61 208.345H47.5909L46.2564 208.364L45.0651 149.897Z" fill="#8DB9EF"/>
<path opacity="0.200893" fill-rule="evenodd" clip-rule="evenodd" d="M45.0972 149.463L47.1121 140.393L45.596 167.89L45.0972 149.463Z" fill="#8DB9EF"/>
<path fill-rule="evenodd" clip-rule="evenodd" d="M23.1685 119.63C23.5269 124.518 27.6096 126.934 30.7973 128.081L30.5483 129.43C30.1607 131.528 31.8884 133.447 34.1655 133.447H55.0098C57.2454 133.447 58.9618 131.595 58.6433 129.525L58.4375 128.188C61.7336 127.094 66.3019 124.82 66.1872 120.638C66.0098 114.173 59.0053 108.09 55.281 105.305C53.9333 103.83 51.9999 103.245 49.221 102.405C48.9064 102.31 48.581 102.211 48.2445 102.108C48.2445 102.108 39.3024 100.634 34.7747 102.782C33.5873 103.345 32.6103 104.149 31.8084 105.062C28.1194 108.084 22.7253 113.583 23.1685 119.63Z" fill="#8EBAF1"/>
<path opacity="0.203218" fill-rule="evenodd" clip-rule="evenodd" d="M47.5142 108.214C47.5142 108.775 47.0646 109.229 46.51 109.229C45.9552 109.229 45.5055 108.775 45.5055 108.214C45.5055 107.653 46.51 106.224 46.51 106.224C46.51 106.224 47.5142 107.653 47.5142 108.214Z" fill="black"/>
<path fill-rule="evenodd" clip-rule="evenodd" d="M33.4411 103.374C33.4411 103.374 34.5163 98.0067 41.3747 98.0207C44.5915 98.0272 45.2638 99.8322 45.0708 101.747C45.0653 101.802 44.8633 101.774 44.7362 101.756C44.7082 101.753 44.6839 101.749 44.6661 101.747C44.1785 101.695 43.9887 101.685 43.6798 101.667L43.4939 101.657C43.4819 101.656 43.4699 101.655 43.4578 101.655L46.416 104.965L48.3255 99.8695L52.1614 103.208L46.3454 106.94C46.3454 106.94 40.2781 103.067 38.2816 101.862L33.4411 103.374ZM56.1623 130.878H47.8628H37.7936L37.9541 128.502C40.4801 127.599 41.9094 124.512 41.8662 117.948L47.6324 118.035L52.7332 118.111C52.7834 123.853 53.8172 126.45 56.0017 128.339L56.1623 130.878Z" fill="#D1E6FF"/>
<path fill-rule="evenodd" clip-rule="evenodd" d="M248.81 96.5965L233.744 96.9781L233.733 96.7367L233.553 93.0431L233.417 90.232C233.373 89.3313 234.128 88.5954 235.029 88.6616L247.143 89.5493C247.902 89.6038 248.499 90.2164 248.537 90.9743L248.602 92.302L248.781 96.0203L248.81 96.5965Z" fill="#8EBAF1"/>
<path fill-rule="evenodd" clip-rule="evenodd" d="M248.781 96.0203C246.602 96.3123 244.061 96.542 241.344 96.6731C238.567 96.808 235.963 96.8223 233.733 96.7367L233.553 93.043C235.765 92.7419 238.358 92.5044 241.136 92.3707C243.853 92.2397 246.404 92.2228 248.602 92.302L248.781 96.0203Z" fill="#8EBAF1"/>
<path d="M242.271 110.624L242.147 106.363C242.147 106.363 247.334 106.775 248.443 106.2C248.443 106.2 249.799 99.2244 248.182 95.3615L248.149 95.211L237.205 94.1923L236.472 100.046C236.104 98.9602 233.18 97.8866 232.384 99.4414C230.661 102.81 236.823 105.079 236.823 105.079L236.198 110.676" fill="#ABCFFB"/>
<path opacity="0.398112" fill-rule="evenodd" clip-rule="evenodd" d="M242.147 106.363L238.65 105.614L242.131 107.962L242.147 106.363Z" fill="#8EBAF1"/>
<path fill-rule="evenodd" clip-rule="evenodd" d="M245.032 99.3991L246.241 102.349L244.792 102.368L245.032 99.3991Z" fill="#8EBAF1"/>
<path fill-rule="evenodd" clip-rule="evenodd" d="M248.764 97.5308L248.592 96.645C248.295 95.4667 239.359 95.9166 239.359 95.9166L239.481 97.5013L239.331 98.2588C232.101 98.4656 226.49 97.835 226.438 96.7459C226.38 95.5576 232.96 94.2737 241.135 93.8779C249.31 93.4824 255.984 94.1249 256.042 95.3132C256.081 96.1076 253.152 96.9448 248.764 97.5308L248.764 97.5308Z" fill="#8EBAF1"/>
<path fill-rule="evenodd" clip-rule="evenodd" d="M237.714 101.876C237.703 101.851 237.692 101.826 237.679 101.8C236.538 99.3615 234.537 98.8544 233.985 98.7589C233.89 97.9697 233.819 97.3389 233.819 97.3389C233.73 96.2604 239.359 95.9165 239.359 95.9165C239.359 95.9165 239.909 100.997 239.562 101.43C239.346 101.7 238.586 101.825 237.714 101.876Z" fill="#8EBAF1"/>
<path fill-rule="evenodd" clip-rule="evenodd" d="M245.984 206.903L246.025 203.397L241.497 201.121L240.84 211.143H256.526C253.857 208.141 245.984 206.903 245.984 206.903ZM226.326 207.04L226.367 203.102L221.75 202.883L221.329 206.822L220.256 211.143H230.992C229.642 207.472 226.326 207.04 226.326 207.04Z" fill="#8EBAF1"/>
<path fill-rule="evenodd" clip-rule="evenodd" d="M226.367 203.102L221.839 201.744L221.329 206.822L226.326 207.04L226.367 203.102ZM246.025 203.398L241.497 202.039L241.133 206.686L245.984 206.903L246.025 203.398Z" fill="#8EBAF1"/>
<path d="M238.93 152.991L228.305 205.421H220.159L229.903 136.141H249.175L248.504 205.153L246.004 205.189L241.244 205.26H241.227L240.013 205.277L238.93 152.991Z" fill="#8EBAF1"/>
<path opacity="0.200893" fill-rule="evenodd" clip-rule="evenodd" d="M238.959 152.602L240.792 144.491L239.413 169.082L238.959 152.602Z" fill="#8EBAF1"/>
<path fill-rule="evenodd" clip-rule="evenodd" d="M253.91 138.506C253.91 138.506 251.944 138.745 251.569 139.596C250.499 142.03 252.717 146.382 252.717 146.382C252.717 146.382 251.777 145.827 251.59 146.312C251.507 146.528 251.318 148.252 254.84 148.368C255.214 148.38 256.114 147.645 256.114 147.645C256.114 147.645 255.458 148.855 256.462 149.093C256.462 149.093 258.08 146.749 258.105 146.228C258.13 145.706 257.61 143.065 257.33 142.532C257.049 141.999 253.91 138.506 253.91 138.506ZM226.648 141.51L226.009 140.298L222.411 139.898C222.151 140.297 221.661 141.233 221.436 141.852C221 143.052 220.953 143.556 220.88 144.335C220.861 144.531 220.841 144.744 220.813 144.99C220.696 146.003 220.688 147.022 221.085 148.378C221.339 149.25 221.611 149.99 221.753 149.959C222.109 149.881 222.123 149.437 222.123 149.437L221.955 148.612L221.879 147.806C221.879 147.806 223.146 151.373 223.253 151.353C223.633 151.283 223.693 150.658 223.693 150.658C223.693 150.658 224.09 151.889 224.29 151.845C224.798 151.731 224.75 151.161 224.75 151.161C224.75 151.161 224.91 151.297 225.034 151.263C225.494 151.134 225.48 150.343 225.472 149.88C225.472 149.843 225.471 149.808 225.471 149.776C225.471 149.776 225.267 148.317 225.308 147.868C225.521 145.578 225.886 145.033 226.087 144.735C226.106 144.707 226.123 144.681 226.139 144.656C226.453 144.863 226.57 145.219 226.694 145.596C226.784 145.871 226.877 146.157 227.054 146.406C227.591 147.164 229.089 147.881 228.251 146.143C227.786 145.179 227.671 144.585 227.563 144.034C227.5 143.711 227.44 143.403 227.314 143.043C226.973 142.068 226.648 141.51 226.648 141.51Z" fill="#8EBAF1"/>
<path opacity="0.145089" d="M253.436 141.651C253.436 141.651 253.931 143.455 255.627 144.018C256.22 144.214 256.072 146.536 257.525 146.258" stroke="#8EBAF1" stroke-width="2.93377"/>
<path d="M235.319 110.843L235.494 108.05L243.604 108.55L243.446 111.085C247.997 112.827 248.391 114.529 249.48 116.767C250.674 119.217 251.911 126.743 251.911 126.743L257.094 139.734L250.74 143.249L249.178 140.241L249.217 136.226L229.8 136.226L229.664 131.282L228.01 141.198L220.748 141.539C220.748 141.539 220.604 131.212 221.987 125.237C222.867 121.432 227.168 114.36 231.241 111.928C232.236 111.334 233.729 111.009 235.319 110.843Z" fill="#8EBAF1"/>
<path fill-rule="evenodd" clip-rule="evenodd" d="M126.494 179.004C124.556 179.004 122.986 181.272 122.986 184.069C122.986 186.866 124.556 189.134 126.494 189.134C128.431 189.134 130.001 186.866 130.001 184.069C130.001 181.272 128.431 179.004 126.494 179.004Z" fill="#8EBAF1"/>
<path d="M126.516 184.333V128.292" stroke="#8EBAF1" stroke-width="19.5584"/>
<path fill-rule="evenodd" clip-rule="evenodd" d="M101.633 155.907H129.428V127.106H101.633V155.907Z" fill="#8EBAF1"/>
<path d="M101.445 184.333V128.292L91.1979 131.383" stroke="#8EBAF1" stroke-width="19.5584" stroke-linejoin="round"/>
<path d="M114.35 168.533L138.637 199.605" stroke="#8EBAF1" stroke-width="6.84545"/>
<path d="M138.637 168.533L114.35 199.605" stroke="#8EBAF1" stroke-width="6.84545"/>
<path d="M111.912 184.069H141.075" stroke="#8EBAF1" stroke-width="6.84545"/>
<path d="M126.494 161.431V206.707" stroke="#8EBAF1" stroke-width="6.84545"/>
<path fill-rule="evenodd" clip-rule="evenodd" d="M126.516 159.399C116.98 159.399 109.249 170.562 109.249 184.333C109.249 198.104 116.98 209.268 126.516 209.268C136.052 209.268 143.783 198.104 143.783 184.333C143.783 170.562 136.052 159.399 126.516 159.399ZM126.516 163.304C129.798 163.304 132.986 165.298 135.492 168.918C136.84 170.864 137.904 173.152 138.657 175.72C139.453 178.439 139.857 181.337 139.857 184.333C139.857 187.33 139.453 190.227 138.657 192.946C137.904 195.514 136.84 197.803 135.492 199.749C132.986 203.369 129.798 205.362 126.516 205.362C123.234 205.362 120.046 203.369 117.539 199.749C116.192 197.803 115.127 195.514 114.375 192.946C113.578 190.227 113.175 187.33 113.175 184.333C113.175 181.337 113.578 178.439 114.375 175.72C115.127 173.152 116.192 170.864 117.539 168.918C120.046 165.298 123.234 163.304 126.516 163.304Z" fill="#8EBAF1"/>
<path d="M101.423 161.431V206.707" stroke="#8EBAF1" stroke-width="6.84545"/>
<path d="M148.783 196.158V154.814" stroke="#8EBAF1" stroke-width="19.5584"/>
<path fill-rule="evenodd" clip-rule="evenodd" d="M149.435 194.563C146.623 194.563 144.343 197.854 144.343 201.915C144.343 205.976 146.623 209.268 149.435 209.268C152.247 209.268 154.526 205.976 154.526 201.915C154.526 197.854 152.247 194.563 149.435 194.563ZM149.435 197.771C149.977 197.771 151.302 199.223 151.302 201.915C151.302 204.607 149.977 206.06 149.435 206.06C148.893 206.06 147.568 204.607 147.568 201.915C147.568 199.223 148.893 197.771 149.435 197.771Z" fill="#8EBAF1"/>
<path fill-rule="evenodd" clip-rule="evenodd" d="M108.217 170.507H148.783V164.243H108.217V170.507Z" fill="#8EBAF1"/>
<path fill-rule="evenodd" clip-rule="evenodd" d="M102.048 170.507H124.04V164.243H102.048V170.507Z" fill="#8EBAF1"/>
<path fill-rule="evenodd" clip-rule="evenodd" d="M157.211 195.761L157.252 192.092L152.803 189.708L152.157 200.198H167.571C164.948 197.057 157.211 195.761 157.211 195.761ZM138.136 195.616L138.178 191.251L133.374 191.009L132.936 195.374L131.819 200.164H142.991C141.587 196.095 138.136 195.616 138.136 195.616Z" fill="#8EBAF1"/>
<path fill-rule="evenodd" clip-rule="evenodd" d="M138.178 191.251L133.467 189.746L132.936 195.374L138.136 195.616L138.178 191.251ZM157.252 192.092L152.803 190.67L152.444 195.533L157.211 195.761L157.252 192.092Z" fill="#8EBAF1"/>
<path fill-rule="evenodd" clip-rule="evenodd" d="M130.424 203.632H168.742V200.198H130.424V203.632Z" fill="#8EBAF1"/>
<path fill-rule="evenodd" clip-rule="evenodd" d="M128.91 203.632H141.737V200.199H128.91V203.632Z" fill="#8EBAF1"/>
<path fill-rule="evenodd" clip-rule="evenodd" d="M101.445 159.399C91.9089 159.399 84.1783 170.562 84.1783 184.333C84.1783 198.104 91.9089 209.268 101.445 209.268C110.981 209.268 118.712 198.104 118.712 184.333C118.712 170.562 110.981 159.399 101.445 159.399ZM101.445 163.304C104.727 163.304 107.915 165.298 110.422 168.918C111.769 170.864 112.834 173.152 113.586 175.72C114.382 178.439 114.786 181.337 114.786 184.333C114.786 187.33 114.382 190.227 113.586 192.946C112.834 195.514 111.769 197.803 110.422 199.749C107.915 203.369 104.727 205.362 101.445 205.362C98.1631 205.362 94.9752 203.369 92.4685 199.749C91.121 197.803 90.0564 195.514 89.3042 192.946C88.5079 190.227 88.1041 187.33 88.1041 184.333C88.1041 181.337 88.5079 178.439 89.3042 175.72C90.0564 173.152 91.121 170.864 92.4685 168.918C94.9752 165.298 98.1631 163.304 101.445 163.304Z" fill="#8EBAF1"/>
<path d="M122.591 196.158L122.55 164.694" stroke="#8EBAF1" stroke-width="19.5584"/>
<path fill-rule="evenodd" clip-rule="evenodd" d="M124.364 194.563C121.552 194.563 119.273 197.854 119.273 201.915C119.273 205.976 121.552 209.268 124.364 209.268C127.176 209.268 129.456 205.976 129.456 201.915C129.456 197.854 127.176 194.563 124.364 194.563ZM124.364 197.771C124.906 197.771 126.231 199.223 126.231 201.915C126.231 204.607 124.906 206.06 124.364 206.06C123.822 206.06 122.497 204.607 122.497 201.915C122.497 199.223 123.822 197.771 124.364 197.771Z" fill="#8EBAF1"/>
<path fill-rule="evenodd" clip-rule="evenodd" d="M101.293 178.838C99.3558 178.838 97.7854 181.106 97.7854 183.903C97.7854 186.7 99.3558 188.968 101.293 188.968C103.23 188.968 104.801 186.7 104.801 183.903C104.801 181.106 103.23 178.838 101.293 178.838Z" fill="#8EBAF1"/>
<path d="M90.8222 170.508L111.764 197.298" stroke="#8EBAF1" stroke-width="6.84545"/>
<path d="M111.61 171.037L90.4368 198.123" stroke="#8EBAF1" stroke-width="6.84545"/>
<path d="M87.3806 184.069H114.703" stroke="#8EBAF1" stroke-width="6.84545"/>
<path d="M143.371 164.694L140.358 193.641H132.254L133.625 164.694H123.672C119.319 164.694 115.79 161.222 115.79 156.94V153.494H127.424L154.298 153.494C159.933 153.494 164.294 158.397 163.596 163.949L159.703 193.641H151.461L151.84 164.694H143.371Z" fill="#8EBAF1"/>
<path fill-rule="evenodd" clip-rule="evenodd" d="M115.79 153.494H137.688C141.343 153.494 144.2 156.596 143.842 160.174L140.358 193.641H132.254L133.625 164.694H123.672C119.319 164.694 115.79 161.222 115.79 156.94V153.494Z" fill="#8EBAF1"/>
<path fill-rule="evenodd" clip-rule="evenodd" d="M134.998 111.9C134.998 111.9 138.701 116.739 133.674 118.024L134.998 111.9Z" fill="#8EBAF1"/>
<path d="M128.098 128.536L127.975 124.269C127.975 124.269 133.275 124.682 134.381 124.106C134.381 124.106 135.222 118.92 134.422 115.244L130.071 111.303L123.048 111.822L122.25 118.197C121.883 117.109 118.537 115.747 117.734 118.186C116.699 121.331 122.668 122.983 122.668 122.983L122.044 128.588" fill="#A4CBFA"/>
<path d="M119.817 111.579L118.097 109.822L119.036 108.903L120.607 110.507L120.759 110.434L120.354 108.173L121.648 107.941L121.972 109.753C125.105 107.836 127.579 109.33 127.579 109.33C127.579 109.33 128.577 105.131 131.341 105.143C135.278 105.16 135.885 111.26 135.885 111.26C135.885 111.26 137.87 107.943 138.998 108.417C140.126 108.891 140.158 119.911 124.493 114.541C124.493 114.541 125.84 117.58 122.25 118.197C122.25 118.197 121.625 116.9 119.503 116.826C119.503 116.826 116.241 115.495 119.817 111.579Z" fill="#8EBAF1"/>
<path opacity="0.4" fill-rule="evenodd" clip-rule="evenodd" d="M127.975 124.269L124.489 123.519L127.958 125.87L127.975 124.269Z" fill="#8EBAF1"/>
<path fill-rule="evenodd" clip-rule="evenodd" d="M130.917 117.848L132.122 120.802L130.678 120.821L130.917 117.848Z" fill="#8EBAF1"/>
<path fill-rule="evenodd" clip-rule="evenodd" d="M120.885 127.668C121.223 128.258 122.702 130.436 126.207 130.642C129.593 130.84 129.342 129.047 129.166 128.448C129.086 128.426 129.007 128.404 128.927 128.382C128.183 128.176 127.39 127.957 126.305 127.844C123.342 127.537 123.11 127.515 120.885 127.668ZM147.723 137.173C146.111 140.337 140.455 150.723 136.422 149.066C133.403 147.826 129.788 137.542 129.788 137.542L135.664 134.045L138.304 141.113L143.695 135.256C143.511 134.096 143.365 132.579 143.73 132.044C144.351 131.134 147.494 128.329 147.494 128.329L148.067 133.081L148.167 132.68C148.166 132.658 148.172 132.634 148.183 132.608L148.187 132.6L148.418 131.673C148.321 131.624 148.281 131.554 148.323 131.457C148.357 131.379 148.431 131.293 148.535 131.202L149.325 128.037C149.325 128.037 149.585 128.152 149.965 128.325C150.576 128.199 152.79 129.704 152.824 129.727L152.824 129.727C153.275 130.018 152.203 134.831 151.332 135.725C150.712 136.361 148.784 136.909 147.723 137.173ZM111.728 158.632L112.088 159.315C112.088 159.315 112.413 159.873 112.754 160.848C112.88 161.208 112.94 161.516 113.003 161.839C113.111 162.39 113.226 162.984 113.691 163.948C114.529 165.686 113.031 164.969 112.494 164.211C112.317 163.962 112.224 163.676 112.134 163.401C112.01 163.024 111.893 162.668 111.579 162.461C111.563 162.486 111.546 162.512 111.527 162.54C111.326 162.839 110.961 163.383 110.748 165.673C110.707 166.123 110.911 167.581 110.911 167.581C110.911 167.613 110.912 167.648 110.912 167.686L110.912 167.686C110.92 168.149 110.934 168.939 110.474 169.068C110.35 169.102 110.19 168.966 110.19 168.966C110.19 168.966 110.238 169.536 109.73 169.65C109.53 169.694 109.133 168.463 109.133 168.463C109.133 168.463 109.073 169.088 108.693 169.158C108.586 169.178 107.319 165.611 107.319 165.611L107.395 166.417L107.563 167.242C107.563 167.242 107.549 167.686 107.193 167.764C107.051 167.795 106.779 167.055 106.525 166.183C106.128 164.827 106.136 163.808 106.253 162.795C106.281 162.549 106.301 162.336 106.32 162.141C106.393 161.362 106.44 160.858 106.876 159.658C106.941 159.478 107.029 159.272 107.126 159.06C106.827 156.478 105.985 148.922 106.088 146.602C106.213 143.788 109.194 137.542 109.194 137.542L115.247 140.926L111.911 147.004L111.728 158.632Z" fill="#8EBAF1"/>
<path fill-rule="evenodd" clip-rule="evenodd" d="M115.064 153.431H134.482L135.193 141.446L138.601 139.459L136.213 133.97L136.192 133.974C136.093 133.775 135.984 133.567 135.864 133.352C134.382 130.683 131.848 129.178 129.165 128.448C129.122 128.436 129.105 128.427 129.103 128.43C129.097 128.437 129.19 128.516 129.217 128.789C129.254 129.172 129.133 129.691 129.006 129.849C128.706 130.222 128.254 130.433 128.071 130.483C127.889 130.532 127.745 130.561 127.584 130.593C127.471 130.616 126.828 130.663 126.717 130.658C125.803 130.61 125.355 130.568 124.779 130.431C124.575 130.382 124.364 130.327 124.114 130.222C124.067 130.202 124.016 130.181 123.961 130.159C123.691 130.048 123.331 129.9 122.965 129.695C122.579 129.479 122.185 129.195 121.9 128.904C121.872 128.875 121.845 128.848 121.819 128.822C121.52 128.517 121.316 128.308 121.174 128.1C121.078 127.959 121.042 127.912 121.021 127.884C121.008 127.867 121.001 127.858 120.989 127.839C120.957 127.788 120.93 127.743 120.923 127.713C120.914 127.681 120.944 127.667 120.943 127.664C120.942 127.662 120.929 127.664 120.885 127.668C119.519 127.803 118.05 128.156 116.448 128.904C111.494 131.214 108.599 137.02 108.599 137.02L114.739 141.611L115.064 153.431Z" fill="#8EBAF1"/>
<path d="M150.295 133.927L150.024 135.254H145.63L147.703 124.689H152.096C151.982 125.269 151.714 126.637 151.291 128.791L150.427 128.392L150.158 128.317L149.947 128.329L149.855 128.392V128.648L150.794 129.995L150.075 130.307L148.97 130.886L148.651 131.106L148.527 131.22L148.426 131.311L148.362 131.388L148.323 131.457L148.306 131.547L148.323 131.587L148.342 131.618L148.37 131.646L148.732 131.773L149.559 131.547H150.376L149.285 131.773L148.567 132.202L148.323 132.431L148.185 132.6V132.754L148.426 132.862L149.947 132.688L149.443 132.961L149.109 133.168L148.804 133.325L148.567 133.629V133.78L148.651 133.868L148.863 133.98H149.187H149.839L150.295 133.927Z" fill="#8EBAF1"/>
<path fill-rule="evenodd" clip-rule="evenodd" d="M145.63 135.254H144.903L146.975 124.689H147.702L145.63 135.254Z" fill="#8EBAF1"/>
<path fill-rule="evenodd" clip-rule="evenodd" d="M148.459 125.915C148.398 126.224 148.218 126.449 148.057 126.417C147.895 126.386 147.814 126.11 147.874 125.802C147.935 125.493 148.115 125.268 148.277 125.3C148.438 125.331 148.519 125.607 148.459 125.915Z" fill="#8EBAF1"/>
<path fill-rule="evenodd" clip-rule="evenodd" d="M182.045 11.8546C182.045 18.2704 176.844 23.4716 170.428 23.4716C164.012 23.4716 158.811 18.2704 158.811 11.8546C158.811 5.43861 164.012 0.23761 170.428 0.23761C176.844 0.23761 182.045 5.43861 182.045 11.8546Z" fill="#8EBAF1"/>
<path fill-rule="evenodd" clip-rule="evenodd" d="M179.767 11.8546C179.767 18.2704 174.566 23.4716 168.15 23.4716C161.734 23.4716 156.533 18.2704 156.533 11.8546C156.533 5.43861 161.734 0.23761 168.15 0.23761C174.566 0.23761 179.767 5.43861 179.767 11.8546Z" fill="#8EBAF1"/>
<path fill-rule="evenodd" clip-rule="evenodd" d="M176.953 11.8538C176.953 16.3884 173.526 20.1213 169.122 20.6051C168.803 20.6404 168.479 20.6579 168.151 20.6579C163.288 20.6579 159.347 16.7168 159.347 11.8538C159.347 6.99261 163.288 3.05127 168.151 3.05127C168.479 3.05127 168.803 3.069 169.122 3.1043C173.526 3.5881 176.953 7.32094 176.953 11.8538Z" fill="#8EBAF1"/>
<path fill-rule="evenodd" clip-rule="evenodd" d="M176.953 11.8538C176.953 16.3884 173.526 20.1212 169.122 20.605C164.716 20.1212 161.289 16.3884 161.289 11.8538C161.289 7.32093 164.716 3.58808 169.122 3.10428C173.526 3.58808 176.953 7.32093 176.953 11.8538Z" fill="#B0CFF3"/>
<path d="M168.532 6.95908L171.384 13.1802" stroke="#8EBAF1" stroke-width="1.34857"/>
<path d="M171.656 10.5721L165.408 17.3638" stroke="#8EBAF1" stroke-width="1.34857"/>
</svg>
