<svg width="312" height="260" viewBox="0 0 312 260" fill="none" xmlns="http://www.w3.org/2000/svg">
<path fill-rule="evenodd" clip-rule="evenodd" d="M126.304 135.99C126.304 141.18 120.231 145.388 112.739 145.388C105.247 145.388 99.1738 141.18 99.1738 135.99C99.1738 130.8 105.247 126.593 112.739 126.593C120.231 126.593 126.304 130.8 126.304 135.99Z" fill="#D2E9FC"/>
<path fill-rule="evenodd" clip-rule="evenodd" d="M113.227 125.99C113.613 128.617 112.301 130.857 112.301 130.857C112.301 130.857 110.364 128.839 109.978 126.212C109.592 123.586 110.904 121.345 110.904 121.345C110.904 121.345 112.841 123.364 113.227 125.99Z" fill="#CCE3FF"/>
<path fill-rule="evenodd" clip-rule="evenodd" d="M112.663 127.706C114.388 130.069 114.326 132.481 114.326 132.481C114.326 132.481 111.465 131.062 109.739 128.699C108.014 126.336 108.076 123.924 108.076 123.924C108.076 123.924 110.937 125.343 112.663 127.706Z" fill="#CCE3FF"/>
<path fill-rule="evenodd" clip-rule="evenodd" d="M114.829 126.276C114.371 128.897 112.378 130.89 112.378 130.89C112.378 130.89 111.128 128.633 111.587 126.012C112.045 123.391 114.038 121.398 114.038 121.398C114.038 121.398 115.288 123.655 114.829 126.276Z" fill="#CCE3FF"/>
<path fill-rule="evenodd" clip-rule="evenodd" d="M116.266 128.175C114.822 130.624 112.137 132.194 112.137 132.194C112.137 132.194 111.792 129.793 113.237 127.344C114.681 124.895 117.367 123.325 117.367 123.325C117.367 123.325 117.711 125.726 116.266 128.175Z" fill="#CCE3FF"/>
<path fill-rule="evenodd" clip-rule="evenodd" d="M120.058 152.743H105.42C102.833 152.743 100.737 150.646 100.737 148.059C100.737 145.473 102.833 143.376 105.42 143.376H120.058C122.645 143.376 124.741 145.473 124.741 148.059C124.741 150.646 122.645 152.743 120.058 152.743Z" fill="#CCE3FF"/>
<path d="M104.988 129.358L102.487 127.41" stroke="#B6D4FF" stroke-width="1.75978"/>
<path d="M101.424 139.441L99.1738 140.991" stroke="#B6D4FF" stroke-width="1.75978"/>
<path d="M107.965 138.596L111.848 139.23" stroke="#B6D4FF" stroke-width="1.75978"/>
<path d="M117.896 129.041L120.241 126.144" stroke="#B6D4FF" stroke-width="1.75978"/>
<path d="M122.178 132.194L124.741 130.553" stroke="#B6D4FF" stroke-width="1.75978"/>
<path d="M122.679 140.673L125.117 142.245" stroke="#B6D4FF" stroke-width="1.75978"/>
<path d="M109.092 132.843L107.932 130.146" stroke="#B6D4FF" stroke-width="1.75978"/>
<path d="M120.19 135.784L117.402 137.112" stroke="#B6D4FF" stroke-width="1.75978"/>
<path d="M106.705 134.242L104.051 132.476" stroke="#B6D4FF" stroke-width="1.75978"/>
<path d="M140.833 69.9833V156.227" stroke="#B6D4FF" stroke-width="3.91061"/>
<path d="M39.5677 70.6882V155.458" stroke="#ECF6FF" stroke-width="4.30168"/>
<path d="M90.7585 72.7673V155.753" stroke="#ECF6FF" stroke-width="4.30168"/>
<path fill-rule="evenodd" clip-rule="evenodd" d="M34.0005 156.227H139.03V69.9833H34.0005V156.227ZM37.7152 152.512H135.315V73.6984H37.7152V152.512Z" fill="#DCEEFF"/>
<path d="M87.3411 70.3519V156.019" stroke="#DCEEFF" stroke-width="4.30168"/>
<path d="M34 113.105H139.03" stroke="#DCEEFF" stroke-width="4.30168"/>
<path fill-rule="evenodd" clip-rule="evenodd" d="M40.1423 76.9397H135.328V73.664H40.1423V76.9397Z" fill="#CCE3FF"/>
<path fill-rule="evenodd" clip-rule="evenodd" d="M40.1423 82.7346H135.328V79.4589H40.1423V82.7346Z" fill="#CCE3FF"/>
<path fill-rule="evenodd" clip-rule="evenodd" d="M40.1423 88.5298H135.328V85.2541H40.1423V88.5298Z" fill="#CCE3FF"/>
<path fill-rule="evenodd" clip-rule="evenodd" d="M40.1423 94.3247H135.328V91.049H40.1423V94.3247Z" fill="#CCE3FF"/>
<path fill-rule="evenodd" clip-rule="evenodd" d="M40.1423 100.12H135.328V96.8441H40.1423V100.12Z" fill="#CCE3FF"/>
<path fill-rule="evenodd" clip-rule="evenodd" d="M273.813 116.644L258.344 117.036L258.332 116.788L258.148 112.995L258.007 110.108C257.962 109.184 258.738 108.428 259.663 108.496L272.102 109.407C272.882 109.463 273.494 110.092 273.533 110.871L273.6 112.234L273.784 116.052L273.813 116.644Z" fill="#2437A8"/>
<path fill-rule="evenodd" clip-rule="evenodd" d="M273.784 116.052C271.547 116.352 268.937 116.588 266.147 116.722C263.296 116.861 260.622 116.876 258.332 116.788L258.148 112.995C260.418 112.686 263.081 112.442 265.934 112.305C268.724 112.17 271.343 112.153 273.6 112.234L273.784 116.052Z" fill="#5E93D1"/>
<path d="M267.099 131.048L266.972 126.672C266.972 126.672 272.298 127.096 273.437 126.505C273.437 126.505 274.829 119.342 273.169 115.376L273.135 115.221L261.897 114.175L261.145 120.186C260.766 119.071 257.764 117.968 256.947 119.565C255.177 123.024 261.506 125.354 261.506 125.354L260.863 131.101" fill="#F79FDE"/>
<path opacity="0.398112" fill-rule="evenodd" clip-rule="evenodd" d="M266.972 126.672L263.381 125.903L266.955 128.314L266.972 126.672Z" fill="black"/>
<path fill-rule="evenodd" clip-rule="evenodd" d="M269.935 119.521L271.175 122.551L269.688 122.569L269.935 119.521Z" fill="#BA65A2"/>
<path fill-rule="evenodd" clip-rule="evenodd" d="M273.767 117.603L273.59 116.694C273.285 115.484 264.11 115.945 264.11 115.945L264.235 117.573L264.08 118.351C256.656 118.563 250.895 117.915 250.841 116.797C250.782 115.577 257.539 114.259 265.933 113.852C274.327 113.446 281.18 114.106 281.24 115.326C281.279 116.142 278.273 117.001 273.767 117.603L273.767 117.603Z" fill="#2437A8"/>
<path fill-rule="evenodd" clip-rule="evenodd" d="M262.42 122.065C262.409 122.039 262.397 122.013 262.384 121.987C261.213 119.483 259.158 118.962 258.591 118.864C258.494 118.054 258.42 117.406 258.42 117.406C258.329 116.299 264.109 115.945 264.109 115.945C264.109 115.945 264.674 121.162 264.317 121.607C264.096 121.884 263.315 122.013 262.42 122.065Z" fill="#19141E"/>
<path fill-rule="evenodd" clip-rule="evenodd" d="M270.912 229.909L270.954 226.31L266.305 223.972L265.63 234.262H281.737C278.997 231.181 270.912 229.909 270.912 229.909ZM250.726 230.05L250.768 226.006L246.027 225.782L245.596 229.826L244.493 234.262H255.517C254.131 230.494 250.726 230.05 250.726 230.05Z" fill="#0D0B6D"/>
<path fill-rule="evenodd" clip-rule="evenodd" d="M250.768 226.006L246.119 224.612L245.596 229.826L250.726 230.05L250.768 226.006ZM270.954 226.31L266.305 224.915L265.93 229.686L270.912 229.909L270.954 226.31Z" fill="#E576C6"/>
<path d="M263.668 174.551L252.759 228.387H244.394L254.399 157.249H274.188L273.5 228.112L270.932 228.149L266.045 228.222H266.027L264.781 228.239L263.668 174.551Z" fill="#2F2F3D"/>
<path opacity="0.200893" fill-rule="evenodd" clip-rule="evenodd" d="M263.698 174.152L265.58 165.823L264.164 191.073L263.698 174.152Z" fill="black"/>
<path fill-rule="evenodd" clip-rule="evenodd" d="M279.051 159.677C279.051 159.677 277.031 159.923 276.647 160.797C275.548 163.296 277.826 167.764 277.826 167.764C277.826 167.764 276.861 167.195 276.669 167.693C276.583 167.914 276.389 169.685 280.005 169.804C280.389 169.816 281.313 169.061 281.313 169.061C281.313 169.061 280.64 170.304 281.671 170.549C281.671 170.549 283.333 168.142 283.358 167.606C283.384 167.07 282.85 164.359 282.562 163.811C282.273 163.264 279.051 159.677 279.051 159.677ZM251.057 162.762L250.401 161.517L246.706 161.106C246.44 161.516 245.936 162.477 245.705 163.114C245.258 164.346 245.209 164.863 245.134 165.663C245.115 165.864 245.094 166.083 245.065 166.335C244.946 167.376 244.938 168.422 245.344 169.814C245.606 170.709 245.885 171.47 246.031 171.438C246.397 171.357 246.411 170.901 246.411 170.901L246.238 170.054L246.16 169.227C246.16 169.227 247.461 172.889 247.571 172.869C247.961 172.798 248.023 172.156 248.023 172.156C248.023 172.156 248.43 173.42 248.636 173.374C249.158 173.257 249.108 172.672 249.108 172.672C249.108 172.672 249.273 172.812 249.4 172.776C249.873 172.644 249.858 171.832 249.85 171.356C249.849 171.318 249.848 171.282 249.848 171.249C249.848 171.249 249.639 169.752 249.682 169.291C249.899 166.939 250.275 166.38 250.481 166.073C250.5 166.044 250.518 166.018 250.534 165.992C250.857 166.205 250.977 166.57 251.104 166.958C251.196 167.24 251.293 167.533 251.474 167.789C252.025 168.568 253.563 169.303 252.703 167.52C252.226 166.529 252.107 165.92 251.997 165.354C251.932 165.022 251.871 164.705 251.741 164.336C251.391 163.335 251.057 162.762 251.057 162.762Z" fill="#F69FDE"/>
<path d="M259.961 131.273L260.14 128.404L268.468 128.918L268.306 131.52C272.979 133.31 273.383 135.057 274.502 137.355C275.727 139.871 276.998 147.599 276.998 147.599L282.32 160.938L275.796 164.548L274.191 161.459L274.231 157.336L254.294 157.336L254.154 152.259L252.456 162.442L244.999 162.792C244.999 162.792 244.851 152.187 246.271 146.053C247.175 142.145 251.591 134.884 255.774 132.387C256.795 131.777 258.328 131.443 259.961 131.273Z" fill="#72A065"/>
<path fill-rule="evenodd" clip-rule="evenodd" d="M129.45 206.49C127.461 206.49 125.849 208.819 125.849 211.691C125.849 214.564 127.461 216.892 129.45 216.892C131.44 216.892 133.052 214.564 133.052 211.691C133.052 208.819 131.44 206.49 129.45 206.49Z" fill="#202128"/>
<path d="M129.473 211.963V154.418" stroke="#202128" stroke-width="19.5584"/>
<path fill-rule="evenodd" clip-rule="evenodd" d="M103.923 182.774H132.463V153.2H103.923V182.774Z" fill="#3D3E44"/>
<path d="M103.73 211.963V154.418L93.2079 157.592" stroke="#202128" stroke-width="19.5584" stroke-linejoin="round"/>
<path d="M116.981 195.739L141.92 227.644" stroke="#202128" stroke-width="6.84545"/>
<path d="M141.92 195.739L116.981 227.644" stroke="#202128" stroke-width="6.84545"/>
<path d="M114.478 211.691H144.423" stroke="#202128" stroke-width="6.84545"/>
<path d="M129.45 188.446V234.937" stroke="#202128" stroke-width="6.84545"/>
<path fill-rule="evenodd" clip-rule="evenodd" d="M129.473 186.36C119.681 186.36 111.743 197.822 111.743 211.963C111.743 226.103 119.681 237.566 129.473 237.566C139.265 237.566 147.203 226.103 147.203 211.963C147.203 197.822 139.265 186.36 129.473 186.36ZM129.473 190.37C132.843 190.37 136.117 192.417 138.691 196.134C140.074 198.132 141.167 200.482 141.94 203.119C142.757 205.911 143.172 208.886 143.172 211.963C143.172 215.039 142.757 218.015 141.94 220.807C141.167 223.444 140.074 225.794 138.691 227.792C136.117 231.509 132.843 233.556 129.473 233.556C126.103 233.556 122.83 231.509 120.256 227.792C118.872 225.794 117.779 223.444 117.007 220.807C116.189 218.015 115.774 215.039 115.774 211.963C115.774 208.886 116.189 205.911 117.007 203.119C117.779 200.482 118.872 198.132 120.256 196.134C122.83 192.417 126.103 190.37 129.473 190.37Z" fill="#868B9B"/>
<path d="M103.707 188.446V234.937" stroke="#202128" stroke-width="6.84545"/>
<path d="M152.338 224.104V181.652" stroke="#202128" stroke-width="19.5584"/>
<path fill-rule="evenodd" clip-rule="evenodd" d="M153.007 222.466C150.12 222.466 147.779 225.846 147.779 230.016C147.779 234.186 150.12 237.566 153.007 237.566C155.895 237.566 158.235 234.186 158.235 230.016C158.235 225.846 155.895 222.466 153.007 222.466ZM153.007 225.76C153.563 225.76 154.924 227.252 154.924 230.016C154.924 232.781 153.563 234.272 153.007 234.272C152.451 234.272 151.09 232.781 151.09 230.016C151.09 227.252 152.451 225.76 153.007 225.76Z" fill="#202128"/>
<path fill-rule="evenodd" clip-rule="evenodd" d="M110.684 197.766H152.338V191.333H110.684V197.766Z" fill="#202128"/>
<path fill-rule="evenodd" clip-rule="evenodd" d="M104.349 197.766H126.931V191.333H104.349V197.766Z" fill="#3D3E44"/>
<path fill-rule="evenodd" clip-rule="evenodd" d="M160.992 223.697L161.033 219.929L156.465 217.482L155.802 228.253H171.63C168.937 225.028 160.992 223.697 160.992 223.697ZM141.405 223.548L141.449 219.066L136.515 218.817L136.066 223.3L134.919 228.218H146.391C144.948 224.04 141.405 223.548 141.405 223.548Z" fill="#0D0B6D"/>
<path fill-rule="evenodd" clip-rule="evenodd" d="M141.449 219.066L136.611 217.52L136.066 223.3L141.405 223.548L141.449 219.066ZM161.033 219.929L156.465 218.469L156.097 223.463L160.992 223.697L161.033 219.929Z" fill="#E576C6"/>
<path fill-rule="evenodd" clip-rule="evenodd" d="M133.487 231.779H172.832V228.253H133.487V231.779Z" fill="#202128"/>
<path fill-rule="evenodd" clip-rule="evenodd" d="M131.932 231.779H145.103V228.254H131.932V231.779Z" fill="#3D3E44"/>
<path d="M125.443 224.104L125.401 191.796" stroke="#3D3E44" stroke-width="19.5584"/>
<path fill-rule="evenodd" clip-rule="evenodd" d="M127.264 222.466C124.376 222.466 122.036 225.846 122.036 230.016C122.036 234.186 124.376 237.566 127.264 237.566C130.151 237.566 132.492 234.186 132.492 230.016C132.492 225.846 130.151 222.466 127.264 222.466ZM127.264 225.76C127.82 225.76 129.181 227.252 129.181 230.016C129.181 232.781 127.82 234.272 127.264 234.272C126.708 234.272 125.347 232.781 125.347 230.016C125.347 227.252 126.708 225.76 127.264 225.76Z" fill="#3D3E44"/>
<path fill-rule="evenodd" clip-rule="evenodd" d="M103.574 206.32C101.585 206.32 99.9721 208.648 99.9721 211.521C99.9721 214.393 101.585 216.722 103.574 216.722C105.563 216.722 107.176 214.393 107.176 211.521C107.176 208.648 105.563 206.32 103.574 206.32Z" fill="#202128"/>
<path d="M92.8221 197.766L114.326 225.275" stroke="#202128" stroke-width="6.84545"/>
<path d="M114.168 198.309L92.4264 226.123" stroke="#202128" stroke-width="6.84545"/>
<path d="M89.2882 211.691H117.343" stroke="#202128" stroke-width="6.84545"/>
<path d="M146.781 191.796L143.686 221.52H135.365L136.773 191.796H126.553C122.083 191.796 118.46 188.232 118.46 183.835V180.297H130.406L158.001 180.297C163.787 180.297 168.264 185.331 167.548 191.032L163.551 221.52H155.087L155.477 191.796H146.781Z" fill="#19141E"/>
<path fill-rule="evenodd" clip-rule="evenodd" d="M118.46 180.297H140.945C144.698 180.297 147.632 183.481 147.264 187.155L143.686 221.52H135.365L136.773 191.796H126.553C122.083 191.796 118.46 188.232 118.46 183.835V180.297Z" fill="white" fill-opacity="0.1"/>
<path fill-rule="evenodd" clip-rule="evenodd" d="M103.73 186.36C93.938 186.36 86 197.822 86 211.963C86 226.103 93.938 237.566 103.73 237.566C113.522 237.566 121.46 226.103 121.46 211.963C121.46 197.822 113.522 186.36 103.73 186.36ZM103.73 190.37C107.1 190.37 110.373 192.417 112.947 196.134C114.331 198.132 115.424 200.482 116.197 203.119C117.014 205.911 117.429 208.886 117.429 211.963C117.429 215.039 117.014 218.015 116.197 220.807C115.424 223.444 114.331 225.794 112.947 227.792C110.373 231.509 107.1 233.556 103.73 233.556C100.36 233.556 97.0866 231.509 94.5126 227.792C93.1289 225.794 92.0358 223.444 91.2634 220.807C90.4457 218.015 90.0311 215.039 90.0311 211.963C90.0311 208.886 90.4457 205.911 91.2634 203.119C92.0358 200.482 93.1289 198.132 94.5126 196.134C97.0866 192.417 100.36 190.37 103.73 190.37Z" fill="#BFC4D6"/>
<path fill-rule="evenodd" clip-rule="evenodd" d="M138.183 137.586C138.183 137.586 141.986 142.555 136.823 143.875L138.183 137.586Z" fill="#19141E"/>
<path d="M131.098 154.669L130.972 150.287C130.972 150.287 136.414 150.711 137.549 150.12C137.549 150.12 138.413 144.795 137.592 141.02L133.123 136.974L125.912 137.506L125.093 144.052C124.716 142.936 121.281 141.536 120.456 144.041C119.393 147.27 125.522 148.967 125.522 148.967L124.881 154.722" fill="#E860C2"/>
<path d="M122.594 137.257L120.829 135.453L121.793 134.509L123.405 136.156L123.562 136.081L123.146 133.76L124.475 133.522L124.808 135.382C128.024 133.413 130.565 134.948 130.565 134.948C130.565 134.948 131.59 130.635 134.427 130.648C138.47 130.665 139.094 136.93 139.094 136.93C139.094 136.93 141.132 133.523 142.29 134.01C143.449 134.497 143.481 145.812 127.396 140.298C127.396 140.298 128.779 143.418 125.093 144.052C125.093 144.052 124.451 142.72 122.273 142.645C122.273 142.645 118.923 141.278 122.594 137.257Z" fill="#19141E"/>
<path opacity="0.4" fill-rule="evenodd" clip-rule="evenodd" d="M130.972 150.287L127.392 149.517L130.954 151.931L130.972 150.287Z" fill="black"/>
<path fill-rule="evenodd" clip-rule="evenodd" d="M133.993 143.694L135.23 146.727L133.747 146.746L133.993 143.694Z" fill="#9B4F86"/>
<path fill-rule="evenodd" clip-rule="evenodd" d="M123.692 153.778C124.038 154.383 125.557 156.62 129.157 156.832C132.633 157.034 132.375 155.194 132.194 154.578C132.113 154.556 132.031 154.533 131.949 154.511C131.185 154.299 130.371 154.074 129.257 153.958C126.214 153.643 125.976 153.62 123.692 153.778ZM151.249 163.537C149.594 166.786 143.786 177.451 139.645 175.75C136.545 174.476 132.833 163.916 132.833 163.916L138.866 160.326L141.577 167.582L147.113 161.569C146.925 160.377 146.774 158.82 147.149 158.271C147.787 157.336 151.014 154.456 151.014 154.456L151.602 159.335L151.705 158.924C151.705 158.901 151.71 158.876 151.722 158.85L151.725 158.842L151.963 157.89C151.863 157.839 151.822 157.768 151.865 157.668C151.9 157.588 151.977 157.499 152.083 157.407L152.895 154.156C152.895 154.156 153.161 154.274 153.551 154.452C154.179 154.322 156.452 155.868 156.487 155.891L156.487 155.892C156.95 156.191 155.849 161.132 154.955 162.05C154.319 162.703 152.339 163.266 151.249 163.537ZM114.288 185.572L114.658 186.273C114.658 186.273 114.992 186.847 115.343 187.847C115.472 188.217 115.534 188.534 115.598 188.865C115.708 189.431 115.827 190.04 116.305 191.031C117.164 192.815 115.627 192.079 115.075 191.301C114.894 191.045 114.798 190.751 114.705 190.469C114.578 190.081 114.459 189.716 114.136 189.503C114.119 189.529 114.101 189.556 114.082 189.585C113.876 189.891 113.501 190.451 113.283 192.802C113.24 193.263 113.449 194.761 113.449 194.761C113.45 194.794 113.45 194.83 113.451 194.868C113.459 195.344 113.474 196.156 113.001 196.288C112.874 196.323 112.709 196.183 112.709 196.183C112.709 196.183 112.759 196.769 112.237 196.885C112.032 196.931 111.624 195.667 111.624 195.667C111.624 195.667 111.562 196.309 111.172 196.38C111.062 196.4 109.761 192.738 109.761 192.738L109.839 193.565L110.012 194.412C110.012 194.412 109.998 194.869 109.632 194.949C109.486 194.981 109.207 194.221 108.946 193.326C108.539 191.933 108.547 190.887 108.667 189.847C108.696 189.594 108.716 189.376 108.735 189.175C108.811 188.375 108.859 187.857 109.307 186.625C109.374 186.441 109.463 186.229 109.564 186.011C109.257 183.36 108.391 175.601 108.497 173.219C108.626 170.33 111.687 163.916 111.687 163.916L117.902 167.391L114.476 173.632L114.288 185.572Z" fill="#E860C2"/>
<path fill-rule="evenodd" clip-rule="evenodd" d="M117.714 180.231H137.653L138.383 167.925L141.883 165.885L139.431 160.248L139.409 160.253C139.307 160.048 139.195 159.835 139.072 159.614C137.551 156.873 134.948 155.328 132.194 154.578C132.149 154.566 132.131 154.557 132.129 154.56C132.124 154.567 132.219 154.648 132.247 154.929C132.285 155.322 132.161 155.855 132.03 156.017C131.723 156.399 131.257 156.616 131.07 156.667C130.883 156.719 130.735 156.748 130.569 156.781C130.453 156.804 129.794 156.853 129.68 156.847C128.741 156.798 128.281 156.755 127.69 156.614C127.48 156.565 127.264 156.508 127.007 156.4C126.959 156.38 126.906 156.358 126.85 156.335C126.572 156.221 126.203 156.069 125.827 155.859C125.43 155.637 125.026 155.345 124.733 155.046C124.705 155.017 124.677 154.989 124.651 154.962C124.343 154.649 124.133 154.435 123.988 154.221C123.89 154.076 123.853 154.027 123.831 153.999C123.818 153.982 123.81 153.972 123.798 153.953C123.766 153.9 123.738 153.855 123.73 153.824C123.721 153.791 123.752 153.777 123.751 153.773C123.75 153.771 123.737 153.773 123.692 153.778C122.288 153.916 120.78 154.278 119.136 155.046C114.049 157.419 111.076 163.381 111.076 163.381L117.38 168.095L117.714 180.231Z" fill="#5E93D1"/>
<path d="M153.89 160.204L153.612 161.567H149.101L151.228 150.718H155.739C155.622 151.314 155.347 152.718 154.913 154.93L154.026 154.52L153.75 154.444L153.532 154.456L153.438 154.52V154.784L154.402 156.167L153.665 156.487L152.53 157.081L152.202 157.308L152.075 157.425L151.971 157.518L151.905 157.597L151.865 157.668L151.848 157.761L151.865 157.802L151.885 157.833L151.914 157.862L152.286 157.993L153.134 157.761H153.973L152.854 157.993L152.116 158.433L151.865 158.668L151.724 158.841V159L151.971 159.111L153.532 158.932L153.015 159.213L152.673 159.424L152.359 159.586L152.116 159.899V160.053L152.202 160.143L152.42 160.259H152.752H153.422L153.89 160.204Z" fill="#5E93D1"/>
<path fill-rule="evenodd" clip-rule="evenodd" d="M149.1 161.567H148.354L150.481 150.718H151.228L149.1 161.567Z" fill="#020101"/>
<path fill-rule="evenodd" clip-rule="evenodd" d="M152.005 151.978C151.942 152.294 151.757 152.525 151.592 152.493C151.426 152.461 151.342 152.178 151.405 151.861C151.467 151.544 151.652 151.313 151.818 151.345C151.983 151.378 152.067 151.661 152.005 151.978Z" fill="#020101"/>
<path fill-rule="evenodd" clip-rule="evenodd" d="M195.258 29.6286C195.258 36.2165 189.917 41.5572 183.329 41.5572C176.741 41.5572 171.4 36.2165 171.4 29.6286C171.4 23.0405 176.741 17.7 183.329 17.7C189.917 17.7 195.258 23.0405 195.258 29.6286Z" fill="#CCE3FF"/>
<path fill-rule="evenodd" clip-rule="evenodd" d="M192.919 29.6286C192.919 36.2165 187.578 41.5572 180.99 41.5572C174.402 41.5572 169.061 36.2165 169.061 29.6286C169.061 23.0405 174.402 17.7 180.99 17.7C187.578 17.7 192.919 23.0405 192.919 29.6286Z" fill="#DCEEFF"/>
<path fill-rule="evenodd" clip-rule="evenodd" d="M190.029 29.6277C190.029 34.284 186.51 38.117 181.988 38.6138C181.66 38.65 181.328 38.668 180.991 38.668C175.997 38.668 171.95 34.6212 171.95 29.6277C171.95 24.6362 175.997 20.5891 180.991 20.5891C181.328 20.5891 181.66 20.6073 181.988 20.6435C186.51 21.1403 190.029 24.9733 190.029 29.6277Z" fill="#CCE3FF"/>
<path fill-rule="evenodd" clip-rule="evenodd" d="M190.029 29.6277C190.029 34.284 186.51 38.117 181.988 38.6138C177.464 38.117 173.945 34.284 173.945 29.6277C173.945 24.9733 177.464 21.1403 181.988 20.6436C186.51 21.1403 190.029 24.9733 190.029 29.6277Z" fill="#ECF6FF"/>
<path d="M181.382 24.6018L184.311 30.9898" stroke="#CCE3FF" stroke-width="1.34857"/>
<path d="M184.59 28.3117L178.174 35.2855" stroke="#CCE3FF" stroke-width="1.34857"/>
<path d="M210.26 124.663L210.126 120.018C210.126 120.018 215.765 120.468 216.971 119.84C216.971 119.84 218.446 112.237 216.687 108.026L216.652 107.862L204.751 106.468L204.011 113.221C203.61 112.038 200.375 110.778 199.51 112.473C197.636 116.146 204.337 118.619 204.337 118.619L203.657 124.719" fill="#E576C6"/>
<path opacity="0.400274" fill-rule="evenodd" clip-rule="evenodd" d="M210.126 120.018L206.323 119.202L210.108 121.761L210.126 120.018Z" fill="black"/>
<path fill-rule="evenodd" clip-rule="evenodd" d="M213.263 112.427L214.577 115.643L213.002 115.663L213.263 112.427Z" fill="#BB3796"/>
<path fill-rule="evenodd" clip-rule="evenodd" d="M204.083 113.293C203.194 112.371 202.227 111.98 201.641 111.818L201.753 109.491L207.343 108.515C206.957 111.111 205.461 112.528 204.083 113.293Z" fill="#EACB47"/>
<path fill-rule="evenodd" clip-rule="evenodd" d="M217.017 108.934C216.514 108.454 213.231 108.306 209.285 108.61C208.368 108.681 207.488 108.77 206.674 108.873C203.985 109.211 202.006 109.692 201.683 110.115C201.326 104.83 204.56 101.682 208.794 101.389C211.572 101.197 214.091 102.282 215.599 104.543C216.37 105.701 216.878 107.17 217.017 108.934Z" fill="#393954"/>
<path fill-rule="evenodd" clip-rule="evenodd" d="M217.081 109.039H217.079C217.074 109.002 217.052 108.966 217.017 108.934C216.514 108.454 213.231 108.306 209.285 108.61C208.368 108.681 207.488 108.77 206.674 108.873C207.832 107.772 209.949 106.032 212.446 105.251C213.514 104.917 214.597 104.674 215.599 104.543C218.03 104.22 219.98 104.551 220.078 105.814C220.204 107.458 217.501 108.835 217.081 109.039Z" fill="#161629"/>
<path fill-rule="evenodd" clip-rule="evenodd" d="M214.954 229.661L214.999 225.836L210.081 223.351L209.367 234.288H226.406C223.507 231.012 214.954 229.661 214.954 229.661ZM193.128 229.811L193.173 225.514L189.966 228.132L187.386 229.573L186.535 234.288H198.197C196.73 230.282 193.128 229.811 193.128 229.811Z" fill="#0D0B6D"/>
<path fill-rule="evenodd" clip-rule="evenodd" d="M193.173 225.514L188.255 224.031L187.386 229.573L193.128 229.811L193.173 225.514ZM214.999 225.836L210.081 224.354L209.684 229.424L214.954 229.661L214.999 225.836Z" fill="#E576C6"/>
<path d="M215.703 224.582L215.59 228.132H209.103L209.217 224.571C208.49 224.279 207.971 223.575 207.953 222.744L206.909 169.564L195.626 223.254C195.467 224.009 194.908 224.596 194.199 224.812L193.775 228.132H186.973L187.558 224.467C186.992 224.026 186.664 223.302 186.777 222.529L197.164 151.369L206.551 151.369L206.551 151.342H217.921L217.239 222.645C217.23 223.583 216.579 224.367 215.703 224.582Z" fill="#2F2F3D"/>
<path opacity="0.197824" fill-rule="evenodd" clip-rule="evenodd" d="M206.851 170.407L208.842 161.556L207.344 188.39L206.851 170.407Z" fill="black"/>
<path d="M199.593 151.436L200.683 151.615L188.801 224.131L187.708 223.948L199.593 151.436Z" fill="#EFEFEF"/>
<path fill-rule="evenodd" clip-rule="evenodd" d="M222.778 154.585C222.778 154.585 220.675 154.841 220.275 155.753C219.13 158.362 221.502 163.025 221.502 163.025C221.502 163.025 220.497 162.431 220.297 162.95C220.208 163.181 220.007 165.029 223.772 165.153C224.172 165.166 225.134 164.378 225.134 164.378C225.134 164.378 224.433 165.676 225.506 165.931C225.506 165.931 227.237 163.418 227.263 162.859C227.29 162.3 226.734 159.471 226.434 158.899C226.134 158.328 222.778 154.585 222.778 154.585ZM194.341 159.135C193.977 158.091 193.653 157.538 193.653 157.538L188.163 157.796C187.605 159.336 187.545 159.864 187.409 161.057C187.403 161.11 187.396 161.165 187.39 161.222C187.265 162.308 187.257 163.4 187.68 164.853C187.953 165.787 188.243 166.581 188.395 166.547C188.776 166.463 188.791 165.987 188.791 165.987L188.611 165.103L188.53 164.24C188.53 164.24 189.884 168.062 189.999 168.041C190.405 167.966 190.469 167.296 190.469 167.296C190.469 167.296 190.894 168.616 191.107 168.568C191.651 168.446 191.599 167.835 191.599 167.835C191.599 167.835 191.771 167.981 191.903 167.944C192.395 167.806 192.38 166.959 192.372 166.463C192.371 166.423 192.37 166.385 192.37 166.351C192.37 166.351 192.152 164.788 192.197 164.306C192.423 161.853 192.814 161.269 193.029 160.949C193.049 160.919 193.068 160.891 193.084 160.864C193.421 161.086 193.545 161.467 193.678 161.872C193.774 162.166 193.874 162.472 194.063 162.739C194.637 163.552 196.238 164.32 195.343 162.458C194.846 161.425 194.722 160.789 194.608 160.198C194.54 159.852 194.476 159.521 194.341 159.135Z" fill="#E576C6"/>
<path opacity="0.150646" d="M222.271 157.955C222.271 157.955 222.8 159.889 224.613 160.491C225.247 160.702 225.089 163.19 226.643 162.892" stroke="black" stroke-width="3"/>
<path fill-rule="evenodd" clip-rule="evenodd" d="M203.101 124.921L203.8 121.992L206.838 122.18L208.927 124.756L210.285 122.392L211.254 122.452L211.556 125.187C215.978 126.877 216.749 128.53 217.717 130.604C217.821 130.827 217.928 131.055 218.041 131.289C219.317 133.915 217.759 152.142 217.759 152.142L198.604 151.262C198.604 151.262 201.199 125.119 202.899 124.941C202.967 124.934 203.034 124.927 203.101 124.921Z" fill="#EFEFEF"/>
<path d="M217.371 152.173L218.269 137.758" stroke="#12173A" stroke-width="5"/>
<path fill-rule="evenodd" clip-rule="evenodd" d="M194.419 163.131L193.055 169.321L203.308 170.159C203.308 170.159 204.188 140.531 204.102 131.821C204.062 127.832 202.9 124.943 202.9 124.943C202.9 124.943 198.343 126.279 197.31 126.962C194.876 128.573 189.586 136.288 188.645 140.366C187.167 146.769 187.32 157.836 187.32 157.836L195.085 157.47L197.322 145.443L197.663 148.522L194.842 161.256C194.939 161.573 195.02 161.813 195.085 161.975C195.409 162.786 195.594 163.258 195.555 163.434C195.519 163.598 195.359 163.697 194.968 163.497C194.865 163.444 194.682 163.322 194.419 163.131ZM218.331 157.472L219.388 159.668L226.182 155.901L220.64 141.979C220.64 141.979 219.199 131.197 218.33 129.757C216.65 126.973 211.589 125.201 211.589 125.201C211.589 125.201 211.59 125.202 211.59 125.204C211.641 125.333 211.681 126.08 211.772 127.754C211.833 128.886 211.918 130.442 212.044 132.517C212.322 137.106 214.964 170.04 214.964 170.04L218.619 169.609L218.331 157.472Z" fill="#CE3D29"/>
<path fill-rule="evenodd" clip-rule="evenodd" d="M199.361 134.004L203.972 143.764C203.972 143.764 204.108 133.028 204.045 130.444C204.001 128.627 202.9 124.943 202.9 124.943L201.069 126.454C199.907 127.413 199.608 129.066 200.361 130.369L200.385 130.411L200.015 130.746C199.102 131.571 198.837 132.893 199.361 134.004ZM211.589 125.201L212.877 143.672L216.238 134.58C216.727 133.26 216.334 131.775 215.255 130.867L215.111 130.746L215.176 130.416C215.417 129.176 214.951 127.905 213.965 127.112L211.589 125.201Z" fill="#2F2F3D"/>
<path d="M58.839 118.854L58.6966 113.918C58.6966 113.918 64.6722 114.396 65.9505 113.729C65.9505 113.729 67.3285 106.458 65.6117 100.999L53.0015 99.5186L52.1043 106.798C51.6796 105.54 48.3641 104.099 47.4476 105.9C45.4618 109.803 52.5625 112.43 52.5625 112.43L51.8415 118.914" fill="#FAA3E2"/>
<path opacity="0.399344" fill-rule="evenodd" clip-rule="evenodd" d="M58.6966 113.918L54.6672 113.051L58.6773 115.77L58.6966 113.918Z" fill="black"/>
<path fill-rule="evenodd" clip-rule="evenodd" d="M62.0204 105.851L63.4129 109.268L61.744 109.29L62.0204 105.851Z" fill="#E576C6"/>
<path d="M49.721 105.242C49.1611 103.152 47.1346 95.4357 47.3733 94.1185C47.6497 92.5919 48.7083 90.7179 54.1478 88.7523C58.7565 87.087 61.3563 88.2929 62.1438 89.319C63.342 90.8803 65.6116 100.999 65.6116 100.999C65.6116 100.999 63.7337 102.341 57.0742 102.11C57.0742 102.11 57.9961 106.134 54.217 105.903C54.217 105.903 54.622 107.258 52.7932 107.684C51.7898 106.118 50.4581 105.485 49.721 105.242Z" fill="#19141E"/>
<path fill-rule="evenodd" clip-rule="evenodd" d="M63.0533 229.652L63.0999 225.615L57.9393 222.994L57.1904 234.534H75.0697C72.0275 231.078 63.0533 229.652 63.0533 229.652ZM40.6463 229.81L40.6928 225.276L35.4303 225.024L34.9513 229.559L33.7274 234.534H45.9647C44.4261 230.308 40.6463 229.81 40.6463 229.81Z" fill="#0D0B6D"/>
<path fill-rule="evenodd" clip-rule="evenodd" d="M40.6928 225.276L35.5322 223.711L34.9512 229.559L40.6464 229.81L40.6928 225.276ZM63.0998 225.616L57.9393 224.052L57.5234 229.402L63.0534 229.652L63.0998 225.616Z" fill="#E576C6"/>
<path d="M55.0125 167.573L42.9024 227.945H33.6171L44.7234 148.171H66.69L65.9256 227.637L63.076 227.679L57.6508 227.76H57.631L56.2474 227.78L55.0125 167.573Z" fill="#2F2F3D"/>
<path opacity="0.200893" fill-rule="evenodd" clip-rule="evenodd" d="M55.0458 167.125L57.1346 157.785L55.5629 186.101L55.0458 167.125Z" fill="black"/>
<path fill-rule="evenodd" clip-rule="evenodd" d="M32.3123 136.405C32.6838 141.438 36.9164 143.926 40.2211 145.108L39.9629 146.496C39.5611 148.657 41.3522 150.633 43.7128 150.633H65.3222C67.6397 150.633 69.4191 148.725 69.0889 146.594L68.8756 145.218C72.2926 144.091 77.0286 141.75 76.9097 137.443C76.7258 130.785 69.4643 124.522 65.6032 121.654C64.2061 120.135 62.2017 119.532 59.3208 118.667C58.9947 118.569 58.6574 118.468 58.3085 118.361C58.3085 118.361 49.0383 116.844 44.3444 119.055C43.1135 119.635 42.1006 120.463 41.2693 121.403C37.4449 124.515 31.8528 130.177 32.3123 136.405Z" fill="#1E9DBC"/>
<path opacity="0.203218" fill-rule="evenodd" clip-rule="evenodd" d="M57.5515 124.648C57.5515 125.226 57.0853 125.694 56.5104 125.694C55.9352 125.694 55.4691 125.226 55.4691 124.648C55.4691 124.071 56.5104 122.6 56.5104 122.6C56.5104 122.6 57.5515 124.071 57.5515 124.648Z" fill="black"/>
<path fill-rule="evenodd" clip-rule="evenodd" d="M42.9619 119.665C42.9619 119.665 44.0766 114.138 51.1866 114.152C54.5215 114.159 55.2185 116.018 55.0184 117.99C55.0126 118.047 54.8032 118.017 54.6715 117.999C54.6425 117.995 54.6173 117.992 54.5988 117.99C54.0934 117.936 53.8966 117.925 53.5763 117.907L53.3836 117.896C53.3712 117.896 53.3587 117.895 53.3462 117.894L56.413 121.303L58.3926 116.056L62.3692 119.494L56.3398 123.337C56.3398 123.337 50.0498 119.349 47.98 118.108L42.9619 119.665ZM66.5169 147.988H57.9128H47.4741L47.6405 145.54C50.2592 144.61 51.741 141.432 51.6962 134.673L57.674 134.762L62.962 134.84C63.014 140.754 64.0858 143.428 66.3505 145.373L66.5169 147.988Z" fill="#EFEFEF"/>
</svg>
